<svg width="32" height="32" viewBox="0 0 32 32" fill="none" xmlns="http://www.w3.org/2000/svg">
<path d="M15.9999 29.5C15.3499 29.5 14.6999 29.25 14.1999 28.8C13.0499 27.8 11.9999 26.9 11.0499 26.1C8.1999 23.65 5.6999 21.6 3.9499 19.5C1.8999 17 0.899902 14.65 0.899902 12C0.899902 9.45 1.7999 7.05 3.3999 5.3C5.0499 3.5 7.3499 2.5 9.7999 2.5C11.6499 2.5 13.3999 3.1 14.8999 4.25C15.2999 4.55 15.6499 4.85 15.9999 5.25C16.3499 4.9 16.6999 4.55 17.0999 4.25C18.5999 3.1 20.2999 2.5 22.1999 2.5C24.6999 2.5 26.9499 3.5 28.5999 5.3C30.2499 7.05 31.0999 9.45 31.0999 12C31.0999 14.65 30.1499 17 28.0499 19.5C26.2999 21.6 23.7999 23.7 20.9499 26.1C19.9999 26.9 18.8999 27.85 17.7499 28.8C17.2999 29.25 16.6499 29.5 15.9999 29.5ZM9.7999 4.75C7.9499 4.75 6.2499 5.5 4.9999 6.8C3.7999 8.15 3.1499 10 3.1499 12C3.1499 14.05 3.9499 16 5.6499 18.05C7.2999 20 9.6999 22.05 12.4499 24.4C13.3999 25.2 14.4999 26.15 15.6499 27.15C15.8499 27.3 16.1499 27.3 16.3499 27.15C17.4999 26.15 18.5999 25.25 19.5499 24.4C22.3499 22 24.7499 20 26.3499 18.05C28.0499 16 28.8499 14.05 28.8499 12C28.8499 10 28.1499 8.15 26.9499 6.85C25.6999 5.5 23.9999 4.75 22.1999 4.75C20.8499 4.75 19.5999 5.2 18.4999 6C18.0499 6.35 17.6499 6.75 17.2499 7.2C16.9499 7.55 16.4999 7.8 15.9999 7.8C15.4999 7.8 15.0999 7.6 14.7499 7.2C14.3499 6.75 13.9499 6.35 13.4999 6C12.4499 5.2 11.1999 4.75 9.7999 4.75Z" fill="white"/>
</svg>
