<svg width="55" height="56" viewBox="0 0 55 56" fill="none" xmlns="http://www.w3.org/2000/svg">
<rect x="15.75" y="48.75" width="23.5" height="6.5" rx="3.25" fill="#E3E3E3" stroke="black" stroke-width="1.5"/>
<path d="M1 9C1 6.23858 3.23858 4 6 4H49C51.7614 4 54 6.23858 54 9V32H1V9Z" fill="#E3E3E3"/>
<path d="M1 32H54V37C54 39.7614 51.7614 42 49 42H6C3.23858 42 1 39.7614 1 37V32Z" fill="#757575"/>
<rect x="20" y="43" width="15" height="5" fill="#E3E3E3"/>
<rect x="7" y="9" width="41" height="23" fill="white"/>
<path d="M48 9V32" stroke="black" stroke-width="1.5" stroke-linecap="round"/>
<path d="M7 9L48 9" stroke="black" stroke-width="1.5" stroke-linecap="round"/>
<path d="M7 9L7 32" stroke="black" stroke-width="1.5" stroke-linecap="round"/>
<path d="M1 32H54" stroke="black" stroke-width="1.5" stroke-linecap="round"/>
<circle cx="28" cy="37" r="2.25" fill="#E3E3E3" stroke="black" stroke-width="1.5"/>
<ellipse cx="18.5" cy="22.5" rx="3.5" ry="2.5" fill="#EDB8A5"/>
<ellipse cx="36.5" cy="22.5" rx="3.5" ry="2.5" fill="#EDB8A5"/>
<path d="M24.5 24.4998C24.5 24.4998 27.5 28.4998 31 24.4999M18 19.4998C18 19.4998 20 17.5 22 19.4998M32.5 19.4998C32.5 19.4998 34.5 17.5 36.5 19.4998" stroke="black" stroke-width="2" stroke-linecap="round"/>
<path d="M20 43V48" stroke="black" stroke-width="1.5" stroke-linecap="round"/>
<path d="M35 43V48.5" stroke="black" stroke-width="1.5" stroke-linecap="round"/>
<circle cx="27.75" cy="5.75" r="0.75" fill="#17181E"/>
<mask id="path-17-inside-1_391_337" fill="white">
<path d="M0 10.5C0 6.08172 3.58172 2.5 8 2.5H47C51.4183 2.5 55 6.08172 55 10.5V35.5C55 39.9183 51.4183 43.5 47 43.5H8C3.58172 43.5 0 39.9183 0 35.5V10.5Z"/>
</mask>
<path d="M47.5 0.75C47.9142 0.75 48.25 0.414214 48.25 0C48.25 -0.414214 47.9142 -0.75 47.5 -0.75V0.75ZM47.5 -0.75H13.5V0.75H47.5V-0.75ZM8 4H47V1H8V4ZM53.5 10.5V35.5H56.5V10.5H53.5ZM47 42H8V45H47V42ZM1.5 35.5V10.5H-1.5V35.5H1.5ZM8 42C4.41015 42 1.5 39.0899 1.5 35.5H-1.5C-1.5 40.7467 2.75329 45 8 45V42ZM53.5 35.5C53.5 39.0899 50.5899 42 47 42V45C52.2467 45 56.5 40.7467 56.5 35.5H53.5ZM47 4C50.5899 4 53.5 6.91015 53.5 10.5H56.5C56.5 5.25329 52.2467 1 47 1V4ZM8 1C2.75329 1 -1.5 5.25329 -1.5 10.5H1.5C1.5 6.91015 4.41015 4 8 4V1Z" fill="#17181E" mask="url(#path-17-inside-1_391_337)"/>
</svg>
