<svg width="259" height="27" viewBox="0 0 259 27" fill="none" xmlns="http://www.w3.org/2000/svg">
<mask id="path-1-outside-1_190_601" maskUnits="userSpaceOnUse" x="0" y="0" width="259" height="28" fill="black">
<rect fill="white" width="259" height="28"/>
<path d="M0.8 25.46L2.96 24.92V1.88L0.8 1.34V0.799998H20.06V7.28H18.98C18.524 6.92 18.128 6.464 17.792 5.912C17.024 4.616 16.64 3.212 16.64 1.7H8.9V13.04H13.04C13.208 12.128 13.52 11.276 13.976 10.484C14.168 10.124 14.396 9.776 14.66 9.44H15.74V17.54H14.66C14.396 17.204 14.168 16.856 13.976 16.496C13.52 15.704 13.208 14.852 13.04 13.94H8.9V24.92L11.06 25.46V26H0.8V25.46ZM29.9713 26.54C28.6273 26.54 27.4153 26.264 26.3353 25.712C25.2793 25.136 24.4513 24.392 23.8513 23.48C23.2513 22.568 22.9513 21.608 22.9513 20.6V9.08L20.7913 8.54V8H25.4713C27.6313 8 28.7113 9.08 28.7113 11.24V20.6C28.7113 22.112 28.9753 23.276 29.5033 24.092C30.0553 24.884 30.6913 25.28 31.4113 25.28C32.2993 25.28 33.1033 24.8 33.8233 23.84C34.0873 23.48 34.3633 23 34.6513 22.4V9.08L32.4913 8.54V8H42.5713V8.54L40.4113 9.08V26.18H40.0513C38.2993 26.18 36.9673 25.7 36.0553 24.74C35.6473 24.308 35.3593 23.828 35.1913 23.3C34.8553 23.9 34.4593 24.44 34.0033 24.92C32.9233 26 31.5793 26.54 29.9713 26.54ZM54.4653 26.54C52.8813 26.54 51.5013 26.252 50.3253 25.676C49.1733 25.1 48.2853 24.308 47.6613 23.3C47.0373 22.292 46.7253 21.152 46.7253 19.88V8.9H44.2053V8H46.7253V6.2C46.7253 4.04 47.8053 2.96 49.9653 2.96H52.4853V8H57.5253V8.9H52.4853V19.88C52.4853 22.088 52.7133 23.6 53.1693 24.416C53.6253 25.232 54.2973 25.64 55.1853 25.64C56.0493 25.64 56.8053 25.22 57.4533 24.38C58.1013 23.54 58.4253 22.4 58.4253 20.96H59.3253C59.3253 22.736 58.8813 24.116 57.9933 25.1C57.1053 26.06 55.9293 26.54 54.4653 26.54ZM69.6092 26.54C68.2652 26.54 67.0532 26.264 65.9732 25.712C64.9172 25.136 64.0892 24.392 63.4892 23.48C62.8892 22.568 62.5892 21.608 62.5892 20.6V9.08L60.4292 8.54V8H65.1092C67.2692 8 68.3492 9.08 68.3492 11.24V20.6C68.3492 22.112 68.6132 23.276 69.1412 24.092C69.6932 24.884 70.3292 25.28 71.0492 25.28C71.9372 25.28 72.7412 24.8 73.4612 23.84C73.7252 23.48 74.0012 23 74.2892 22.4V9.08L72.1292 8.54V8H82.2092V8.54L80.0492 9.08V26.18H79.6892C77.9372 26.18 76.6052 25.7 75.6932 24.74C75.2852 24.308 74.9972 23.828 74.8292 23.3C74.4932 23.9 74.0972 24.44 73.6412 24.92C72.5612 26 71.2172 26.54 69.6092 26.54ZM84.7433 25.46L86.9033 24.92V9.08L84.7433 8.54V8H87.9833C89.3993 8 90.5153 8.456 91.3313 9.368C91.6433 9.728 91.9073 10.172 92.1233 10.7C92.4833 10.172 92.9273 9.692 93.4553 9.26C94.6553 8.3 95.9993 7.82 97.4873 7.82C98.7593 7.82 99.7073 8.12 100.331 8.72C100.979 9.296 101.303 10.136 101.303 11.24C101.303 12.056 101.051 12.716 100.547 13.22C100.067 13.7 99.4193 13.94 98.6033 13.94C98.2673 13.94 97.9313 13.916 97.5953 13.868L97.1633 13.76V8.72C95.9393 8.72 94.8233 9.2 93.8153 10.16C93.3353 10.64 92.9513 11.12 92.6633 11.6V24.92L94.8233 25.46V26H84.7433V25.46ZM112.999 26.54C109.927 26.54 107.539 25.7 105.835 24.02C104.131 22.316 103.279 19.976 103.279 17C103.279 15.056 103.651 13.364 104.395 11.924C105.139 10.484 106.171 9.38 107.491 8.612C108.835 7.844 110.371 7.46 112.099 7.46C113.827 7.46 115.339 7.784 116.635 8.432C117.955 9.08 118.963 9.956 119.659 11.06C120.379 12.14 120.739 13.34 120.739 14.66C120.739 15.26 120.679 15.776 120.559 16.208L120.379 16.82C119.347 17.036 118.231 17.216 117.031 17.36C114.511 17.72 111.967 17.9 109.399 17.9C109.399 20.684 109.783 22.676 110.551 23.876C111.319 25.052 112.375 25.64 113.719 25.64C114.655 25.64 115.519 25.424 116.311 24.992C117.127 24.536 117.763 23.948 118.219 23.228C118.699 22.484 118.939 21.728 118.939 20.96H119.839C119.839 21.92 119.551 22.832 118.975 23.696C118.399 24.56 117.595 25.256 116.563 25.784C115.531 26.288 114.343 26.54 112.999 26.54ZM109.399 17C110.935 17 112.183 16.94 113.143 16.82C113.551 16.796 113.983 16.736 114.439 16.64C114.463 16.52 114.523 16.256 114.619 15.848C114.739 15.248 114.799 14.612 114.799 13.94C114.799 11.948 114.535 10.496 114.007 9.584C113.479 8.648 112.843 8.18 112.099 8.18C110.299 8.18 109.399 11.12 109.399 17ZM134.593 25.46L136.753 24.92V1.88L134.593 1.34V0.799998H144.313C147.961 0.799998 150.637 1.388 152.341 2.564C154.069 3.716 154.933 5.228 154.933 7.1C154.933 8.396 154.561 9.44 153.817 10.232C153.073 11.024 152.125 11.612 150.973 11.996C149.749 12.428 148.429 12.656 147.013 12.68V12.86C148.765 12.932 150.289 13.196 151.585 13.652C152.905 14.084 153.997 14.756 154.861 15.668C155.749 16.58 156.193 17.744 156.193 19.16C156.193 21.296 155.317 22.976 153.565 24.2C151.813 25.4 148.969 26 145.033 26H134.593V25.46ZM144.313 12.32C145.105 12.32 145.837 12.104 146.509 11.672C147.205 11.216 147.757 10.592 148.165 9.8C148.597 8.984 148.813 8.084 148.813 7.1C148.813 6.044 148.597 5.108 148.165 4.292C147.757 3.476 147.205 2.84 146.509 2.384C145.837 1.928 145.105 1.7 144.313 1.7H142.693V12.32H144.313ZM145.033 25.1C146.521 25.1 147.733 24.572 148.669 23.516C149.605 22.46 150.073 21.008 150.073 19.16C150.073 17.312 149.605 15.86 148.669 14.804C147.733 13.748 146.521 13.22 145.033 13.22H142.693V25.1H145.033ZM159.062 25.46L161.222 24.92V1.88L159.062 1.34V0.799998H163.742C165.902 0.799998 166.982 1.88 166.982 4.04V24.92L169.142 25.46V26H159.062V25.46ZM181.197 26.54C178.221 26.54 175.881 25.7 174.177 24.02C172.497 22.316 171.657 19.976 171.657 17C171.657 14.024 172.497 11.696 174.177 10.016C175.881 8.312 178.221 7.46 181.197 7.46C184.173 7.46 186.501 8.312 188.181 10.016C189.885 11.696 190.737 14.024 190.737 17C190.737 19.976 189.885 22.316 188.181 24.02C186.501 25.7 184.173 26.54 181.197 26.54ZM181.197 25.82C182.157 25.82 182.961 25.148 183.609 23.804C184.281 22.46 184.617 20.192 184.617 17C184.617 13.808 184.281 11.54 183.609 10.196C182.961 8.852 182.157 8.18 181.197 8.18C180.237 8.18 179.421 8.852 178.749 10.196C178.101 11.54 177.777 13.808 177.777 17C177.777 20.192 178.101 22.46 178.749 23.804C179.421 25.148 180.237 25.82 181.197 25.82ZM193.989 25.46L196.149 24.92V9.08L193.989 8.54V8H197.229C198.645 8 199.761 8.456 200.577 9.368C200.889 9.728 201.153 10.172 201.369 10.7C201.705 10.076 202.101 9.536 202.557 9.08C203.637 8 204.981 7.46 206.589 7.46C207.933 7.46 209.133 7.748 210.189 8.324C211.269 8.876 212.109 9.608 212.709 10.52C213.309 11.432 213.609 12.392 213.609 13.4V24.92L215.769 25.46V26H211.089C208.929 26 207.849 24.92 207.849 22.76V13.4C207.849 11.888 207.573 10.736 207.021 9.944C206.493 9.128 205.869 8.72 205.149 8.72C204.237 8.72 203.421 9.2 202.701 10.16C202.389 10.568 202.125 11.048 201.909 11.6V24.92L204.069 25.46V26H193.989V25.46ZM225.671 26.54C224.255 26.54 222.995 26.18 221.891 25.46C220.787 24.716 219.911 23.636 219.263 22.22C218.615 20.78 218.291 19.04 218.291 17C218.291 13.928 218.999 11.576 220.415 9.944C221.855 8.288 223.787 7.46 226.211 7.46C227.363 7.46 228.371 7.7 229.235 8.18C229.595 8.348 229.967 8.588 230.351 8.9V1.88L228.191 1.34V0.799998H232.871C235.031 0.799998 236.111 1.88 236.111 4.04V24.92L238.271 25.46V26H235.031C233.591 26 232.475 25.556 231.683 24.668C231.347 24.308 231.083 23.852 230.891 23.3C230.579 23.9 230.183 24.44 229.703 24.92C228.623 26 227.279 26.54 225.671 26.54ZM227.111 25.28C227.999 25.28 228.803 24.8 229.523 23.84C229.787 23.48 230.063 23 230.351 22.4V9.98C230.087 9.716 229.811 9.476 229.523 9.26C228.875 8.78 228.251 8.54 227.651 8.54C226.619 8.54 225.815 9.14 225.239 10.34C224.687 11.54 224.411 13.76 224.411 17C224.411 20.096 224.663 22.256 225.167 23.48C225.695 24.68 226.343 25.28 227.111 25.28ZM250.695 26.54C247.623 26.54 245.235 25.7 243.531 24.02C241.827 22.316 240.975 19.976 240.975 17C240.975 15.056 241.347 13.364 242.091 11.924C242.835 10.484 243.867 9.38 245.187 8.612C246.531 7.844 248.067 7.46 249.795 7.46C251.523 7.46 253.035 7.784 254.331 8.432C255.651 9.08 256.659 9.956 257.355 11.06C258.075 12.14 258.435 13.34 258.435 14.66C258.435 15.26 258.375 15.776 258.255 16.208L258.075 16.82C257.043 17.036 255.927 17.216 254.727 17.36C252.207 17.72 249.663 17.9 247.095 17.9C247.095 20.684 247.479 22.676 248.247 23.876C249.015 25.052 250.071 25.64 251.415 25.64C252.351 25.64 253.215 25.424 254.007 24.992C254.823 24.536 255.459 23.948 255.915 23.228C256.395 22.484 256.635 21.728 256.635 20.96H257.535C257.535 21.92 257.247 22.832 256.671 23.696C256.095 24.56 255.291 25.256 254.259 25.784C253.227 26.288 252.039 26.54 250.695 26.54ZM247.095 17C248.631 17 249.879 16.94 250.839 16.82C251.247 16.796 251.679 16.736 252.135 16.64C252.159 16.52 252.219 16.256 252.315 15.848C252.435 15.248 252.495 14.612 252.495 13.94C252.495 11.948 252.231 10.496 251.703 9.584C251.175 8.648 250.539 8.18 249.795 8.18C247.995 8.18 247.095 11.12 247.095 17Z"/>
</mask>
<path d="M0.8 25.46L2.96 24.92V1.88L0.8 1.34V0.799998H20.06V7.28H18.98C18.524 6.92 18.128 6.464 17.792 5.912C17.024 4.616 16.64 3.212 16.64 1.7H8.9V13.04H13.04C13.208 12.128 13.52 11.276 13.976 10.484C14.168 10.124 14.396 9.776 14.66 9.44H15.74V17.54H14.66C14.396 17.204 14.168 16.856 13.976 16.496C13.52 15.704 13.208 14.852 13.04 13.94H8.9V24.92L11.06 25.46V26H0.8V25.46ZM29.9713 26.54C28.6273 26.54 27.4153 26.264 26.3353 25.712C25.2793 25.136 24.4513 24.392 23.8513 23.48C23.2513 22.568 22.9513 21.608 22.9513 20.6V9.08L20.7913 8.54V8H25.4713C27.6313 8 28.7113 9.08 28.7113 11.24V20.6C28.7113 22.112 28.9753 23.276 29.5033 24.092C30.0553 24.884 30.6913 25.28 31.4113 25.28C32.2993 25.28 33.1033 24.8 33.8233 23.84C34.0873 23.48 34.3633 23 34.6513 22.4V9.08L32.4913 8.54V8H42.5713V8.54L40.4113 9.08V26.18H40.0513C38.2993 26.18 36.9673 25.7 36.0553 24.74C35.6473 24.308 35.3593 23.828 35.1913 23.3C34.8553 23.9 34.4593 24.44 34.0033 24.92C32.9233 26 31.5793 26.54 29.9713 26.54ZM54.4653 26.54C52.8813 26.54 51.5013 26.252 50.3253 25.676C49.1733 25.1 48.2853 24.308 47.6613 23.3C47.0373 22.292 46.7253 21.152 46.7253 19.88V8.9H44.2053V8H46.7253V6.2C46.7253 4.04 47.8053 2.96 49.9653 2.96H52.4853V8H57.5253V8.9H52.4853V19.88C52.4853 22.088 52.7133 23.6 53.1693 24.416C53.6253 25.232 54.2973 25.64 55.1853 25.64C56.0493 25.64 56.8053 25.22 57.4533 24.38C58.1013 23.54 58.4253 22.4 58.4253 20.96H59.3253C59.3253 22.736 58.8813 24.116 57.9933 25.1C57.1053 26.06 55.9293 26.54 54.4653 26.54ZM69.6092 26.54C68.2652 26.54 67.0532 26.264 65.9732 25.712C64.9172 25.136 64.0892 24.392 63.4892 23.48C62.8892 22.568 62.5892 21.608 62.5892 20.6V9.08L60.4292 8.54V8H65.1092C67.2692 8 68.3492 9.08 68.3492 11.24V20.6C68.3492 22.112 68.6132 23.276 69.1412 24.092C69.6932 24.884 70.3292 25.28 71.0492 25.28C71.9372 25.28 72.7412 24.8 73.4612 23.84C73.7252 23.48 74.0012 23 74.2892 22.4V9.08L72.1292 8.54V8H82.2092V8.54L80.0492 9.08V26.18H79.6892C77.9372 26.18 76.6052 25.7 75.6932 24.74C75.2852 24.308 74.9972 23.828 74.8292 23.3C74.4932 23.9 74.0972 24.44 73.6412 24.92C72.5612 26 71.2172 26.54 69.6092 26.54ZM84.7433 25.46L86.9033 24.92V9.08L84.7433 8.54V8H87.9833C89.3993 8 90.5153 8.456 91.3313 9.368C91.6433 9.728 91.9073 10.172 92.1233 10.7C92.4833 10.172 92.9273 9.692 93.4553 9.26C94.6553 8.3 95.9993 7.82 97.4873 7.82C98.7593 7.82 99.7073 8.12 100.331 8.72C100.979 9.296 101.303 10.136 101.303 11.24C101.303 12.056 101.051 12.716 100.547 13.22C100.067 13.7 99.4193 13.94 98.6033 13.94C98.2673 13.94 97.9313 13.916 97.5953 13.868L97.1633 13.76V8.72C95.9393 8.72 94.8233 9.2 93.8153 10.16C93.3353 10.64 92.9513 11.12 92.6633 11.6V24.92L94.8233 25.46V26H84.7433V25.46ZM112.999 26.54C109.927 26.54 107.539 25.7 105.835 24.02C104.131 22.316 103.279 19.976 103.279 17C103.279 15.056 103.651 13.364 104.395 11.924C105.139 10.484 106.171 9.38 107.491 8.612C108.835 7.844 110.371 7.46 112.099 7.46C113.827 7.46 115.339 7.784 116.635 8.432C117.955 9.08 118.963 9.956 119.659 11.06C120.379 12.14 120.739 13.34 120.739 14.66C120.739 15.26 120.679 15.776 120.559 16.208L120.379 16.82C119.347 17.036 118.231 17.216 117.031 17.36C114.511 17.72 111.967 17.9 109.399 17.9C109.399 20.684 109.783 22.676 110.551 23.876C111.319 25.052 112.375 25.64 113.719 25.64C114.655 25.64 115.519 25.424 116.311 24.992C117.127 24.536 117.763 23.948 118.219 23.228C118.699 22.484 118.939 21.728 118.939 20.96H119.839C119.839 21.92 119.551 22.832 118.975 23.696C118.399 24.56 117.595 25.256 116.563 25.784C115.531 26.288 114.343 26.54 112.999 26.54ZM109.399 17C110.935 17 112.183 16.94 113.143 16.82C113.551 16.796 113.983 16.736 114.439 16.64C114.463 16.52 114.523 16.256 114.619 15.848C114.739 15.248 114.799 14.612 114.799 13.94C114.799 11.948 114.535 10.496 114.007 9.584C113.479 8.648 112.843 8.18 112.099 8.18C110.299 8.18 109.399 11.12 109.399 17ZM134.593 25.46L136.753 24.92V1.88L134.593 1.34V0.799998H144.313C147.961 0.799998 150.637 1.388 152.341 2.564C154.069 3.716 154.933 5.228 154.933 7.1C154.933 8.396 154.561 9.44 153.817 10.232C153.073 11.024 152.125 11.612 150.973 11.996C149.749 12.428 148.429 12.656 147.013 12.68V12.86C148.765 12.932 150.289 13.196 151.585 13.652C152.905 14.084 153.997 14.756 154.861 15.668C155.749 16.58 156.193 17.744 156.193 19.16C156.193 21.296 155.317 22.976 153.565 24.2C151.813 25.4 148.969 26 145.033 26H134.593V25.46ZM144.313 12.32C145.105 12.32 145.837 12.104 146.509 11.672C147.205 11.216 147.757 10.592 148.165 9.8C148.597 8.984 148.813 8.084 148.813 7.1C148.813 6.044 148.597 5.108 148.165 4.292C147.757 3.476 147.205 2.84 146.509 2.384C145.837 1.928 145.105 1.7 144.313 1.7H142.693V12.32H144.313ZM145.033 25.1C146.521 25.1 147.733 24.572 148.669 23.516C149.605 22.46 150.073 21.008 150.073 19.16C150.073 17.312 149.605 15.86 148.669 14.804C147.733 13.748 146.521 13.22 145.033 13.22H142.693V25.1H145.033ZM159.062 25.46L161.222 24.92V1.88L159.062 1.34V0.799998H163.742C165.902 0.799998 166.982 1.88 166.982 4.04V24.92L169.142 25.46V26H159.062V25.46ZM181.197 26.54C178.221 26.54 175.881 25.7 174.177 24.02C172.497 22.316 171.657 19.976 171.657 17C171.657 14.024 172.497 11.696 174.177 10.016C175.881 8.312 178.221 7.46 181.197 7.46C184.173 7.46 186.501 8.312 188.181 10.016C189.885 11.696 190.737 14.024 190.737 17C190.737 19.976 189.885 22.316 188.181 24.02C186.501 25.7 184.173 26.54 181.197 26.54ZM181.197 25.82C182.157 25.82 182.961 25.148 183.609 23.804C184.281 22.46 184.617 20.192 184.617 17C184.617 13.808 184.281 11.54 183.609 10.196C182.961 8.852 182.157 8.18 181.197 8.18C180.237 8.18 179.421 8.852 178.749 10.196C178.101 11.54 177.777 13.808 177.777 17C177.777 20.192 178.101 22.46 178.749 23.804C179.421 25.148 180.237 25.82 181.197 25.82ZM193.989 25.46L196.149 24.92V9.08L193.989 8.54V8H197.229C198.645 8 199.761 8.456 200.577 9.368C200.889 9.728 201.153 10.172 201.369 10.7C201.705 10.076 202.101 9.536 202.557 9.08C203.637 8 204.981 7.46 206.589 7.46C207.933 7.46 209.133 7.748 210.189 8.324C211.269 8.876 212.109 9.608 212.709 10.52C213.309 11.432 213.609 12.392 213.609 13.4V24.92L215.769 25.46V26H211.089C208.929 26 207.849 24.92 207.849 22.76V13.4C207.849 11.888 207.573 10.736 207.021 9.944C206.493 9.128 205.869 8.72 205.149 8.72C204.237 8.72 203.421 9.2 202.701 10.16C202.389 10.568 202.125 11.048 201.909 11.6V24.92L204.069 25.46V26H193.989V25.46ZM225.671 26.54C224.255 26.54 222.995 26.18 221.891 25.46C220.787 24.716 219.911 23.636 219.263 22.22C218.615 20.78 218.291 19.04 218.291 17C218.291 13.928 218.999 11.576 220.415 9.944C221.855 8.288 223.787 7.46 226.211 7.46C227.363 7.46 228.371 7.7 229.235 8.18C229.595 8.348 229.967 8.588 230.351 8.9V1.88L228.191 1.34V0.799998H232.871C235.031 0.799998 236.111 1.88 236.111 4.04V24.92L238.271 25.46V26H235.031C233.591 26 232.475 25.556 231.683 24.668C231.347 24.308 231.083 23.852 230.891 23.3C230.579 23.9 230.183 24.44 229.703 24.92C228.623 26 227.279 26.54 225.671 26.54ZM227.111 25.28C227.999 25.28 228.803 24.8 229.523 23.84C229.787 23.48 230.063 23 230.351 22.4V9.98C230.087 9.716 229.811 9.476 229.523 9.26C228.875 8.78 228.251 8.54 227.651 8.54C226.619 8.54 225.815 9.14 225.239 10.34C224.687 11.54 224.411 13.76 224.411 17C224.411 20.096 224.663 22.256 225.167 23.48C225.695 24.68 226.343 25.28 227.111 25.28ZM250.695 26.54C247.623 26.54 245.235 25.7 243.531 24.02C241.827 22.316 240.975 19.976 240.975 17C240.975 15.056 241.347 13.364 242.091 11.924C242.835 10.484 243.867 9.38 245.187 8.612C246.531 7.844 248.067 7.46 249.795 7.46C251.523 7.46 253.035 7.784 254.331 8.432C255.651 9.08 256.659 9.956 257.355 11.06C258.075 12.14 258.435 13.34 258.435 14.66C258.435 15.26 258.375 15.776 258.255 16.208L258.075 16.82C257.043 17.036 255.927 17.216 254.727 17.36C252.207 17.72 249.663 17.9 247.095 17.9C247.095 20.684 247.479 22.676 248.247 23.876C249.015 25.052 250.071 25.64 251.415 25.64C252.351 25.64 253.215 25.424 254.007 24.992C254.823 24.536 255.459 23.948 255.915 23.228C256.395 22.484 256.635 21.728 256.635 20.96H257.535C257.535 21.92 257.247 22.832 256.671 23.696C256.095 24.56 255.291 25.256 254.259 25.784C253.227 26.288 252.039 26.54 250.695 26.54ZM247.095 17C248.631 17 249.879 16.94 250.839 16.82C251.247 16.796 251.679 16.736 252.135 16.64C252.159 16.52 252.219 16.256 252.315 15.848C252.435 15.248 252.495 14.612 252.495 13.94C252.495 11.948 252.231 10.496 251.703 9.584C251.175 8.648 250.539 8.18 249.795 8.18C247.995 8.18 247.095 11.12 247.095 17Z" fill="#31505D"/>
<path d="M0.8 25.46L0.678732 24.9749L0.3 25.0696V25.46H0.8ZM2.96 24.92L3.08127 25.4051L3.46 25.3104V24.92H2.96ZM2.96 1.88H3.46V1.48961L3.08127 1.39493L2.96 1.88ZM0.8 1.34H0.3V1.73039L0.678732 1.82507L0.8 1.34ZM0.8 0.799998V0.299998H0.3V0.799998H0.8ZM20.06 0.799998H20.56V0.299998H20.06V0.799998ZM20.06 7.28V7.78H20.56V7.28H20.06ZM18.98 7.28L18.6702 7.67244L18.8064 7.78H18.98V7.28ZM17.792 5.912L17.3618 6.16692L17.3649 6.17197L17.792 5.912ZM16.64 1.7H17.14V1.2H16.64V1.7ZM8.9 1.7V1.2H8.4V1.7H8.9ZM8.9 13.04H8.4V13.54H8.9V13.04ZM13.04 13.04V13.54H13.4563L13.5317 13.1306L13.04 13.04ZM13.976 10.484L14.4093 10.7335L14.4134 10.7265L14.4172 10.7193L13.976 10.484ZM14.66 9.44V8.94H14.417L14.2668 9.13109L14.66 9.44ZM15.74 9.44H16.24V8.94H15.74V9.44ZM15.74 17.54V18.04H16.24V17.54H15.74ZM14.66 17.54L14.2668 17.8489L14.417 18.04H14.66V17.54ZM13.976 16.496L14.4172 16.2607L14.4134 16.2535L14.4093 16.2465L13.976 16.496ZM13.04 13.94L13.5317 13.8494L13.4563 13.44H13.04V13.94ZM8.9 13.94V13.44H8.4V13.94H8.9ZM8.9 24.92H8.4V25.3104L8.77873 25.4051L8.9 24.92ZM11.06 25.46H11.56V25.0696L11.1813 24.9749L11.06 25.46ZM11.06 26V26.5H11.56V26H11.06ZM0.8 26H0.3V26.5H0.8V26ZM0.921268 25.9451L3.08127 25.4051L2.83873 24.4349L0.678732 24.9749L0.921268 25.9451ZM3.46 24.92V1.88H2.46V24.92H3.46ZM3.08127 1.39493L0.921268 0.854927L0.678732 1.82507L2.83873 2.36507L3.08127 1.39493ZM1.3 1.34V0.799998H0.3V1.34H1.3ZM0.8 1.3H20.06V0.299998H0.8V1.3ZM19.56 0.799998V7.28H20.56V0.799998H19.56ZM20.06 6.78H18.98V7.78H20.06V6.78ZM19.2898 6.88756C18.8854 6.5683 18.5276 6.15893 18.2191 5.65203L17.3649 6.17197C17.7284 6.76907 18.1626 7.2717 18.6702 7.67244L19.2898 6.88756ZM18.2221 5.6571C17.5 4.43856 17.14 3.12265 17.14 1.7H16.14C16.14 3.30135 16.548 4.79344 17.3619 6.1669L18.2221 5.6571ZM16.64 1.2H8.9V2.2H16.64V1.2ZM8.4 1.7V13.04H9.4V1.7H8.4ZM8.9 13.54H13.04V12.54H8.9V13.54ZM13.5317 13.1306C13.6896 12.2736 13.9821 11.4755 14.4093 10.7335L13.5427 10.2345C13.0579 11.0765 12.7264 11.9824 12.5483 12.9494L13.5317 13.1306ZM14.4172 10.7193C14.5947 10.3864 14.8064 10.0629 15.0532 9.74891L14.2668 9.13109C13.9856 9.48908 13.7413 9.86161 13.5348 10.2487L14.4172 10.7193ZM14.66 9.94H15.74V8.94H14.66V9.94ZM15.24 9.44V17.54H16.24V9.44H15.24ZM15.74 17.04H14.66V18.04H15.74V17.04ZM15.0532 17.2311C14.8064 16.9171 14.5947 16.5936 14.4172 16.2607L13.5348 16.7313C13.7413 17.1184 13.9856 17.4909 14.2668 17.8489L15.0532 17.2311ZM14.4093 16.2465C13.9821 15.5045 13.6896 14.7064 13.5317 13.8494L12.5483 14.0306C12.7264 14.9976 13.0579 15.9035 13.5427 16.7455L14.4093 16.2465ZM13.04 13.44H8.9V14.44H13.04V13.44ZM8.4 13.94V24.92H9.4V13.94H8.4ZM8.77873 25.4051L10.9387 25.9451L11.1813 24.9749L9.02127 24.4349L8.77873 25.4051ZM10.56 25.46V26H11.56V25.46H10.56ZM11.06 25.5H0.8V26.5H11.06V25.5ZM1.3 26V25.46H0.3V26H1.3ZM26.3353 25.712L26.0957 26.1511L26.1077 26.1572L26.3353 25.712ZM23.8513 23.48L24.269 23.2052L24.269 23.2052L23.8513 23.48ZM22.9513 9.08H23.4513V8.68961L23.0725 8.59493L22.9513 9.08ZM20.7913 8.54H20.2913V8.93039L20.67 9.02507L20.7913 8.54ZM20.7913 8V7.5H20.2913V8H20.7913ZM29.5033 24.092L29.0835 24.3636L29.0881 24.3708L29.0931 24.3779L29.5033 24.092ZM33.8233 23.84L34.2233 24.14L34.2265 24.1357L33.8233 23.84ZM34.6513 22.4L35.102 22.6164L35.1513 22.5138V22.4H34.6513ZM34.6513 9.08H35.1513V8.68961L34.7725 8.59493L34.6513 9.08ZM32.4913 8.54H31.9913V8.93039L32.37 9.02507L32.4913 8.54ZM32.4913 8V7.5H31.9913V8H32.4913ZM42.5713 8H43.0713V7.5H42.5713V8ZM42.5713 8.54L42.6925 9.02507L43.0713 8.93039V8.54H42.5713ZM40.4113 9.08L40.29 8.59493L39.9113 8.68961V9.08H40.4113ZM40.4113 26.18V26.68H40.9113V26.18H40.4113ZM36.0553 24.74L35.6917 25.0833L35.6928 25.0844L36.0553 24.74ZM35.1913 23.3L35.6677 23.1484L35.3182 22.05L34.755 23.0557L35.1913 23.3ZM34.0033 24.92L34.3569 25.2737L34.3658 25.2644L34.0033 24.92ZM29.9713 26.04C28.6977 26.04 27.565 25.779 26.5628 25.2668L26.1077 26.1572C27.2655 26.749 28.5568 27.04 29.9713 27.04V26.04ZM26.5747 25.2731C25.5832 24.7322 24.8194 24.0419 24.269 23.2052L23.4335 23.7548C24.0831 24.7421 24.9753 25.5398 26.0958 26.1509L26.5747 25.2731ZM24.269 23.2052C23.718 22.3677 23.4513 21.5022 23.4513 20.6H22.4513C22.4513 21.7138 22.7845 22.7683 23.4335 23.7548L24.269 23.2052ZM23.4513 20.6V9.08H22.4513V20.6H23.4513ZM23.0725 8.59493L20.9125 8.05493L20.67 9.02507L22.83 9.56507L23.0725 8.59493ZM21.2913 8.54V8H20.2913V8.54H21.2913ZM20.7913 8.5H25.4713V7.5H20.7913V8.5ZM25.4713 8.5C26.4742 8.5 27.1345 8.75039 27.5477 9.16355C27.9609 9.57671 28.2113 10.2371 28.2113 11.24H29.2113C29.2113 10.0829 28.9216 9.12329 28.2548 8.45645C27.588 7.78961 26.6283 7.5 25.4713 7.5V8.5ZM28.2113 11.24V20.6H29.2113V11.24H28.2113ZM28.2113 20.6C28.2113 22.159 28.4815 23.4334 29.0835 24.3636L29.923 23.8204C29.469 23.1186 29.2113 22.065 29.2113 20.6H28.2113ZM29.0931 24.3779C29.7036 25.2539 30.4749 25.78 31.4113 25.78V24.78C30.9076 24.78 30.4069 24.5141 29.9135 23.8061L29.0931 24.3779ZM31.4113 25.78C32.508 25.78 33.4446 25.1782 34.2233 24.14L33.4233 23.54C32.7619 24.4218 32.0905 24.78 31.4113 24.78V25.78ZM34.2265 24.1357C34.5153 23.7419 34.8065 23.2321 35.102 22.6164L34.2005 22.1836C33.92 22.7679 33.6592 23.2181 33.42 23.5443L34.2265 24.1357ZM35.1513 22.4V9.08H34.1513V22.4H35.1513ZM34.7725 8.59493L32.6125 8.05493L32.37 9.02507L34.53 9.56507L34.7725 8.59493ZM32.9913 8.54V8H31.9913V8.54H32.9913ZM32.4913 8.5H42.5713V7.5H32.4913V8.5ZM42.0713 8V8.54H43.0713V8H42.0713ZM42.45 8.05493L40.29 8.59493L40.5325 9.56507L42.6925 9.02507L42.45 8.05493ZM39.9113 9.08V26.18H40.9113V9.08H39.9113ZM40.4113 25.68H40.0513V26.68H40.4113V25.68ZM40.0513 25.68C38.3901 25.68 37.2076 25.2271 36.4178 24.3956L35.6928 25.0844C36.7269 26.1729 38.2084 26.68 40.0513 26.68V25.68ZM36.4188 24.3967C36.0585 24.0153 35.8113 23.5997 35.6677 23.1484L34.7148 23.4516C34.9072 24.0563 35.236 24.6007 35.6917 25.0833L36.4188 24.3967ZM34.755 23.0557C34.4385 23.6208 34.067 24.1269 33.6408 24.5756L34.3658 25.2644C34.8515 24.7531 35.272 24.1792 35.6275 23.5443L34.755 23.0557ZM33.6497 24.5664C32.6688 25.5473 31.4544 26.04 29.9713 26.04V27.04C31.7041 27.04 33.1777 26.4527 34.3568 25.2736L33.6497 24.5664ZM50.3253 25.676L50.1017 26.1232L50.1054 26.125L50.3253 25.676ZM47.6613 23.3L48.0864 23.0368L48.0864 23.0368L47.6613 23.3ZM46.7253 8.9H47.2253V8.4H46.7253V8.9ZM44.2053 8.9H43.7053V9.4H44.2053V8.9ZM44.2053 8V7.5H43.7053V8H44.2053ZM46.7253 8V8.5H47.2253V8H46.7253ZM52.4853 2.96H52.9853V2.46H52.4853V2.96ZM52.4853 8H51.9853V8.5H52.4853V8ZM57.5253 8H58.0253V7.5H57.5253V8ZM57.5253 8.9V9.4H58.0253V8.9H57.5253ZM52.4853 8.9V8.4H51.9853V8.9H52.4853ZM53.1693 24.416L52.7328 24.6599L52.7328 24.6599L53.1693 24.416ZM57.4533 24.38L57.8492 24.6854L57.8492 24.6854L57.4533 24.38ZM58.4253 20.96V20.46H57.9253V20.96H58.4253ZM59.3253 20.96H59.8253V20.46H59.3253V20.96ZM57.9933 25.1L58.3604 25.4395L58.3645 25.435L57.9933 25.1ZM54.4653 26.04C52.9418 26.04 51.6399 25.7631 50.5452 25.227L50.1054 26.125C51.3627 26.7409 52.8208 27.04 54.4653 27.04V26.04ZM50.5489 25.2288C49.4724 24.6905 48.6574 23.9592 48.0864 23.0368L47.2362 23.5632C47.9132 24.6568 48.8742 25.5095 50.1017 26.1232L50.5489 25.2288ZM48.0864 23.0368C47.515 22.1137 47.2253 21.0661 47.2253 19.88H46.2253C46.2253 21.2379 46.5597 22.4703 47.2362 23.5632L48.0864 23.0368ZM47.2253 19.88V8.9H46.2253V19.88H47.2253ZM46.7253 8.4H44.2053V9.4H46.7253V8.4ZM44.7053 8.9V8H43.7053V8.9H44.7053ZM44.2053 8.5H46.7253V7.5H44.2053V8.5ZM47.2253 8V6.2H46.2253V8H47.2253ZM47.2253 6.2C47.2253 5.19707 47.4757 4.53671 47.8889 4.12355C48.302 3.71039 48.9624 3.46 49.9653 3.46V2.46C48.8082 2.46 47.8486 2.74961 47.1818 3.41645C46.5149 4.08329 46.2253 5.04293 46.2253 6.2H47.2253ZM49.9653 3.46H52.4853V2.46H49.9653V3.46ZM51.9853 2.96V8H52.9853V2.96H51.9853ZM52.4853 8.5H57.5253V7.5H52.4853V8.5ZM57.0253 8V8.9H58.0253V8H57.0253ZM57.5253 8.4H52.4853V9.4H57.5253V8.4ZM51.9853 8.9V19.88H52.9853V8.9H51.9853ZM51.9853 19.88C51.9853 20.999 52.0429 21.9557 52.1619 22.7446C52.2799 23.5271 52.4628 24.1766 52.7328 24.6599L53.6058 24.1721C53.4199 23.8394 53.2607 23.3249 53.1507 22.5954C53.0417 21.8723 52.9853 20.969 52.9853 19.88H51.9853ZM52.7328 24.6599C53.2715 25.6237 54.1047 26.14 55.1853 26.14V25.14C54.4899 25.14 53.9792 24.8403 53.6058 24.1721L52.7328 24.6599ZM55.1853 26.14C56.2397 26.14 57.1305 25.6171 57.8492 24.6854L57.0574 24.0746C56.4801 24.8229 55.8589 25.14 55.1853 25.14V26.14ZM57.8492 24.6854C58.5852 23.7313 58.9253 22.4714 58.9253 20.96H57.9253C57.9253 22.3286 57.6174 23.3487 57.0574 24.0746L57.8492 24.6854ZM58.4253 21.46H59.3253V20.46H58.4253V21.46ZM58.8253 20.96C58.8253 22.655 58.4025 23.9003 57.6221 24.765L58.3645 25.435C59.3602 24.3317 59.8253 22.817 59.8253 20.96H58.8253ZM57.6263 24.7605C56.8447 25.6054 55.8084 26.04 54.4653 26.04V27.04C56.0502 27.04 57.3659 26.5146 58.3604 25.4395L57.6263 24.7605ZM65.9732 25.712L65.7337 26.1511L65.7457 26.1572L65.9732 25.712ZM63.4892 23.48L63.9069 23.2052L63.9069 23.2052L63.4892 23.48ZM62.5892 9.08H63.0892V8.68961L62.7105 8.59493L62.5892 9.08ZM60.4292 8.54H59.9292V8.93039L60.308 9.02507L60.4292 8.54ZM60.4292 8V7.5H59.9292V8H60.4292ZM69.1412 24.092L68.7214 24.3636L68.7261 24.3708L68.731 24.3779L69.1412 24.092ZM73.4612 23.84L73.8612 24.14L73.8644 24.1357L73.4612 23.84ZM74.2892 22.4L74.74 22.6164L74.7892 22.5138V22.4H74.2892ZM74.2892 9.08H74.7892V8.68961L74.4105 8.59493L74.2892 9.08ZM72.1292 8.54H71.6292V8.93039L72.008 9.02507L72.1292 8.54ZM72.1292 8V7.5H71.6292V8H72.1292ZM82.2092 8H82.7092V7.5H82.2092V8ZM82.2092 8.54L82.3305 9.02507L82.7092 8.93039V8.54H82.2092ZM80.0492 9.08L79.928 8.59493L79.5492 8.68961V9.08H80.0492ZM80.0492 26.18V26.68H80.5492V26.18H80.0492ZM75.6932 24.74L75.3297 25.0833L75.3307 25.0844L75.6932 24.74ZM74.8292 23.3L75.3057 23.1484L74.9562 22.05L74.393 23.0557L74.8292 23.3ZM73.6412 24.92L73.9949 25.2737L74.0037 25.2644L73.6412 24.92ZM69.6092 26.04C68.3357 26.04 67.203 25.779 66.2008 25.2668L65.7457 26.1572C66.9035 26.749 68.1948 27.04 69.6092 27.04V26.04ZM66.2126 25.2731C65.2212 24.7322 64.4574 24.0419 63.9069 23.2052L63.0715 23.7548C63.721 24.7421 64.6133 25.5398 65.7338 26.1509L66.2126 25.2731ZM63.9069 23.2052C63.356 22.3677 63.0892 21.5022 63.0892 20.6H62.0892C62.0892 21.7138 62.4225 22.7683 63.0715 23.7548L63.9069 23.2052ZM63.0892 20.6V9.08H62.0892V20.6H63.0892ZM62.7105 8.59493L60.5505 8.05493L60.308 9.02507L62.468 9.56507L62.7105 8.59493ZM60.9292 8.54V8H59.9292V8.54H60.9292ZM60.4292 8.5H65.1092V7.5H60.4292V8.5ZM65.1092 8.5C66.1121 8.5 66.7725 8.75039 67.1857 9.16355C67.5988 9.57671 67.8492 10.2371 67.8492 11.24H68.8492C68.8492 10.0829 68.5596 9.12329 67.8928 8.45645C67.2259 7.78961 66.2663 7.5 65.1092 7.5V8.5ZM67.8492 11.24V20.6H68.8492V11.24H67.8492ZM67.8492 20.6C67.8492 22.159 68.1195 23.4334 68.7214 24.3636L69.561 23.8204C69.1069 23.1186 68.8492 22.065 68.8492 20.6H67.8492ZM68.731 24.3779C69.3416 25.2539 70.1129 25.78 71.0492 25.78V24.78C70.5456 24.78 70.0449 24.5141 69.5514 23.8061L68.731 24.3779ZM71.0492 25.78C72.146 25.78 73.0826 25.1782 73.8612 24.14L73.0612 23.54C72.3998 24.4218 71.7285 24.78 71.0492 24.78V25.78ZM73.8644 24.1357C74.1532 23.7419 74.4444 23.2321 74.74 22.6164L73.8385 22.1836C73.558 22.7679 73.2972 23.2181 73.058 23.5443L73.8644 24.1357ZM74.7892 22.4V9.08H73.7892V22.4H74.7892ZM74.4105 8.59493L72.2505 8.05493L72.008 9.02507L74.168 9.56507L74.4105 8.59493ZM72.6292 8.54V8H71.6292V8.54H72.6292ZM72.1292 8.5H82.2092V7.5H72.1292V8.5ZM81.7092 8V8.54H82.7092V8H81.7092ZM82.088 8.05493L79.928 8.59493L80.1705 9.56507L82.3305 9.02507L82.088 8.05493ZM79.5492 9.08V26.18H80.5492V9.08H79.5492ZM80.0492 25.68H79.6892V26.68H80.0492V25.68ZM79.6892 25.68C78.028 25.68 76.8456 25.2271 76.0557 24.3956L75.3307 25.0844C76.3648 26.1729 77.8464 26.68 79.6892 26.68V25.68ZM76.0567 24.3967C75.6965 24.0153 75.4493 23.5997 75.3057 23.1484L74.3528 23.4516C74.5452 24.0563 74.874 24.6007 75.3297 25.0833L76.0567 24.3967ZM74.393 23.0557C74.0765 23.6208 73.705 24.1269 73.2787 24.5756L74.0037 25.2644C74.4895 24.7531 74.9099 24.1792 75.2655 23.5443L74.393 23.0557ZM73.2877 24.5664C72.3068 25.5473 71.0924 26.04 69.6092 26.04V27.04C71.342 27.04 72.8156 26.4527 73.9948 25.2736L73.2877 24.5664ZM84.7433 25.46L84.622 24.9749L84.2433 25.0696V25.46H84.7433ZM86.9033 24.92L87.0246 25.4051L87.4033 25.3104V24.92H86.9033ZM86.9033 9.08H87.4033V8.68961L87.0246 8.59493L86.9033 9.08ZM84.7433 8.54H84.2433V8.93039L84.622 9.02507L84.7433 8.54ZM84.7433 8V7.5H84.2433V8H84.7433ZM91.3313 9.368L91.7092 9.04049L91.7039 9.0346L91.3313 9.368ZM92.1233 10.7L91.6605 10.8893L92.0126 11.7499L92.5364 10.9817L92.1233 10.7ZM93.4553 9.26L93.1429 8.86954L93.1387 8.87302L93.4553 9.26ZM100.331 8.72L99.9847 9.08042L99.9918 9.0872L99.9991 9.0937L100.331 8.72ZM100.547 13.22L100.901 13.5736L100.901 13.5736L100.547 13.22ZM97.5953 13.868L97.474 14.3531L97.499 14.3593L97.5246 14.363L97.5953 13.868ZM97.1633 13.76H96.6633V14.1504L97.042 14.2451L97.1633 13.76ZM97.1633 8.72H97.6633V8.22H97.1633V8.72ZM93.8153 10.16L93.4704 9.79782L93.4617 9.80645L93.8153 10.16ZM92.6633 11.6L92.2345 11.3428L92.1633 11.4615V11.6H92.6633ZM92.6633 24.92H92.1633V25.3104L92.542 25.4051L92.6633 24.92ZM94.8233 25.46H95.3233V25.0696L94.9446 24.9749L94.8233 25.46ZM94.8233 26V26.5H95.3233V26H94.8233ZM84.7433 26H84.2433V26.5H84.7433V26ZM84.8646 25.9451L87.0246 25.4051L86.782 24.4349L84.622 24.9749L84.8646 25.9451ZM87.4033 24.92V9.08H86.4033V24.92H87.4033ZM87.0246 8.59493L84.8646 8.05493L84.622 9.02507L86.782 9.56507L87.0246 8.59493ZM85.2433 8.54V8H84.2433V8.54H85.2433ZM84.7433 8.5H87.9833V7.5H84.7433V8.5ZM87.9833 8.5C89.2817 8.5 90.2528 8.91247 90.9587 9.7014L91.7039 9.0346C90.7778 7.99953 89.5169 7.5 87.9833 7.5V8.5ZM90.9534 9.69547C91.2236 10.0071 91.4612 10.402 91.6605 10.8893L92.5861 10.5107C92.3534 9.94197 92.063 9.44886 91.7091 9.04053L90.9534 9.69547ZM92.5364 10.9817C92.8677 10.4958 93.2784 10.0507 93.7719 9.64698L93.1387 8.87302C92.5761 9.33328 92.0989 9.84821 91.7102 10.4183L92.5364 10.9817ZM93.7676 9.65043C94.8821 8.75884 96.1168 8.32 97.4873 8.32V7.32C95.8818 7.32 94.4284 7.84116 93.1429 8.86956L93.7676 9.65043ZM97.4873 8.32C98.6901 8.32 99.4897 8.60439 99.9847 9.08042L100.678 8.35958C99.9249 7.63561 98.8284 7.32 97.4873 7.32V8.32ZM99.9991 9.0937C100.513 9.55021 100.803 10.237 100.803 11.24H101.803C101.803 10.035 101.446 9.04178 100.663 8.34629L99.9991 9.0937ZM100.803 11.24C100.803 11.9442 100.59 12.47 100.194 12.8664L100.901 13.5736C101.512 12.962 101.803 12.1677 101.803 11.24H100.803ZM100.194 12.8664C99.826 13.2342 99.3153 13.44 98.6033 13.44V14.44C99.5232 14.44 100.309 14.1658 100.901 13.5736L100.194 12.8664ZM98.6033 13.44C98.2912 13.44 97.9788 13.4177 97.666 13.373L97.5246 14.363C97.8838 14.4143 98.2434 14.44 98.6033 14.44V13.44ZM97.7166 13.3829L97.2846 13.2749L97.042 14.2451L97.474 14.3531L97.7166 13.3829ZM97.6633 13.76V8.72H96.6633V13.76H97.6633ZM97.1633 8.22C95.793 8.22 94.5576 8.76251 93.4705 9.79793L94.1601 10.5221C95.0889 9.63749 96.0855 9.22 97.1633 9.22V8.22ZM93.4617 9.80645C92.9587 10.3095 92.5475 10.8212 92.2345 11.3428L93.092 11.8572C93.3551 11.4188 93.7119 10.9705 94.1688 10.5136L93.4617 9.80645ZM92.1633 11.6V24.92H93.1633V11.6H92.1633ZM92.542 25.4051L94.702 25.9451L94.9446 24.9749L92.7846 24.4349L92.542 25.4051ZM94.3233 25.46V26H95.3233V25.46H94.3233ZM94.8233 25.5H84.7433V26.5H94.8233V25.5ZM85.2433 26V25.46H84.2433V26H85.2433ZM105.835 24.02L105.482 24.3736L105.484 24.3761L105.835 24.02ZM104.395 11.924L103.951 11.6945L103.951 11.6945L104.395 11.924ZM107.491 8.612L107.243 8.17786L107.24 8.17983L107.491 8.612ZM116.635 8.432L116.411 8.87922L116.415 8.88083L116.635 8.432ZM119.659 11.06L119.236 11.3267L119.243 11.3373L119.659 11.06ZM120.559 16.208L121.039 16.3491L121.041 16.3418L120.559 16.208ZM120.379 16.82L120.481 17.3094L120.774 17.2481L120.859 16.9611L120.379 16.82ZM117.031 17.36L116.971 16.8634L116.96 16.865L117.031 17.36ZM109.399 17.9V17.4H108.899V17.9H109.399ZM110.551 23.876L110.13 24.1455L110.132 24.1494L110.551 23.876ZM116.311 24.992L116.551 25.431L116.555 25.4285L116.311 24.992ZM118.219 23.228L117.799 22.9569L117.797 22.9605L118.219 23.228ZM118.939 20.96V20.46H118.439V20.96H118.939ZM119.839 20.96H120.339V20.46H119.839V20.96ZM118.975 23.696L118.559 23.4186L118.559 23.4186L118.975 23.696ZM116.563 25.784L116.783 26.2334L116.791 26.2291L116.563 25.784ZM109.399 17H108.899V17.5H109.399V17ZM113.143 16.82L113.114 16.3209L113.097 16.3218L113.081 16.3239L113.143 16.82ZM114.439 16.64L114.542 17.1293L114.865 17.0614L114.929 16.7381L114.439 16.64ZM114.619 15.848L115.106 15.9625L115.108 15.9543L115.109 15.9461L114.619 15.848ZM114.007 9.584L113.572 9.82967L113.574 9.83452L114.007 9.584ZM112.999 26.04C110.02 26.04 107.772 25.2276 106.186 23.6639L105.484 24.3761C107.306 26.1724 109.835 27.04 112.999 27.04V26.04ZM106.189 23.6664C104.599 22.0772 103.779 19.8764 103.779 17H102.779C102.779 20.0756 103.663 22.5548 105.482 24.3736L106.189 23.6664ZM103.779 17C103.779 15.1201 104.139 13.5097 104.839 12.1535L103.951 11.6945C103.164 13.2183 102.779 14.9919 102.779 17H103.779ZM104.839 12.1535C105.542 10.7926 106.51 9.76135 107.743 9.04417L107.24 8.17983C105.832 8.99865 104.736 10.1754 103.951 11.6945L104.839 12.1535ZM107.739 9.04612C108.999 8.32615 110.448 7.96 112.099 7.96V6.96C110.294 6.96 108.671 7.36185 107.243 8.17788L107.739 9.04612ZM112.099 7.96C113.764 7.96 115.197 8.272 116.411 8.87921L116.859 7.98479C115.481 7.296 113.89 6.96 112.099 6.96V7.96ZM116.415 8.88083C117.662 9.49334 118.596 10.3106 119.236 11.3266L120.082 10.7933C119.331 9.60144 118.248 8.66666 116.855 7.98316L116.415 8.88083ZM119.243 11.3373C119.907 12.3337 120.239 13.4369 120.239 14.66H121.239C121.239 13.2431 120.851 11.9463 120.075 10.7826L119.243 11.3373ZM120.239 14.66C120.239 15.229 120.182 15.6976 120.077 16.0742L121.041 16.3418C121.176 15.8544 121.239 15.291 121.239 14.66H120.239ZM120.079 16.0669L119.899 16.6789L120.859 16.9611L121.039 16.3491L120.079 16.0669ZM120.277 16.3306C119.261 16.5432 118.159 16.721 116.971 16.8636L117.091 17.8564C118.303 17.711 119.433 17.5288 120.481 17.3094L120.277 16.3306ZM116.96 16.865C114.464 17.2216 111.944 17.4 109.399 17.4V18.4C111.991 18.4 114.558 18.2183 117.102 17.855L116.96 16.865ZM108.899 17.9C108.899 20.7037 109.281 22.8189 110.13 24.1455L110.972 23.6065C110.285 22.5331 109.899 20.6643 109.899 17.9H108.899ZM110.132 24.1494C110.988 25.4591 112.197 26.14 113.719 26.14V25.14C112.553 25.14 111.65 24.6449 110.97 23.6026L110.132 24.1494ZM113.719 26.14C114.735 26.14 115.682 25.9045 116.55 25.4309L116.072 24.5531C115.356 24.9435 114.575 25.14 113.719 25.14V26.14ZM116.555 25.4285C117.436 24.9359 118.137 24.2925 118.641 23.4955L117.797 22.9605C117.389 23.6035 116.818 24.1361 116.067 24.5555L116.555 25.4285ZM118.639 23.4991C119.163 22.6869 119.439 21.8382 119.439 20.96H118.439C118.439 21.6178 118.235 22.2811 117.799 22.9569L118.639 23.4991ZM118.939 21.46H119.839V20.46H118.939V21.46ZM119.339 20.96C119.339 21.8132 119.085 22.6298 118.559 23.4186L119.391 23.9733C120.017 23.0342 120.339 22.0268 120.339 20.96H119.339ZM118.559 23.4186C118.036 24.2036 117.3 24.8452 116.335 25.3389L116.791 26.2291C117.89 25.6668 118.762 24.9164 119.391 23.9733L118.559 23.4186ZM116.344 25.3347C115.391 25.8001 114.28 26.04 112.999 26.04V27.04C114.406 27.04 115.671 26.7759 116.782 26.2333L116.344 25.3347ZM109.399 17.5C110.945 17.5 112.216 17.4397 113.205 17.3161L113.081 16.3239C112.15 16.4403 110.925 16.5 109.399 16.5V17.5ZM113.172 17.3191C113.608 17.2935 114.065 17.2297 114.542 17.1293L114.336 16.1507C113.901 16.2423 113.494 16.2985 113.114 16.3209L113.172 17.3191ZM114.929 16.7381C114.951 16.6279 115.009 16.3727 115.106 15.9625L114.132 15.7335C114.037 16.1393 113.975 16.4121 113.949 16.5419L114.929 16.7381ZM115.109 15.9461C115.236 15.3108 115.299 14.6417 115.299 13.94H114.299C114.299 14.5823 114.242 15.1852 114.129 15.7499L115.109 15.9461ZM115.299 13.94C115.299 11.9257 115.036 10.3633 114.44 9.33348L113.574 9.83452C114.034 10.6287 114.299 11.9703 114.299 13.94H115.299ZM114.443 9.33834C113.87 8.32264 113.098 7.68 112.099 7.68V8.68C112.589 8.68 113.089 8.97336 113.572 9.82966L114.443 9.33834ZM112.099 7.68C110.842 7.68 110.058 8.72858 109.596 10.2386C109.124 11.7815 108.899 14.0469 108.899 17H109.899C109.899 14.0731 110.124 11.9285 110.552 10.5314C110.99 9.10142 111.556 8.68 112.099 8.68V7.68ZM134.593 25.46L134.472 24.9749L134.093 25.0696V25.46H134.593ZM136.753 24.92L136.875 25.4051L137.253 25.3104V24.92H136.753ZM136.753 1.88H137.253V1.48961L136.875 1.39493L136.753 1.88ZM134.593 1.34H134.093V1.73039L134.472 1.82507L134.593 1.34ZM134.593 0.799998V0.299998H134.093V0.799998H134.593ZM152.341 2.564L152.057 2.97557L152.064 2.98002L152.341 2.564ZM153.817 10.232L154.182 10.5743L154.182 10.5743L153.817 10.232ZM150.973 11.996L150.815 11.5216L150.807 11.5245L150.973 11.996ZM147.013 12.68L147.005 12.1801L146.513 12.1884V12.68H147.013ZM147.013 12.86H146.513V13.3399L146.993 13.3596L147.013 12.86ZM151.585 13.652L151.419 14.1238L151.43 14.1272L151.585 13.652ZM154.861 15.668L154.498 16.0119L154.503 16.0168L154.861 15.668ZM153.565 24.2L153.848 24.6125L153.852 24.6099L153.565 24.2ZM134.593 26H134.093V26.5H134.593V26ZM146.509 11.672L146.78 12.0926L146.783 12.0902L146.509 11.672ZM148.165 9.8L147.724 9.56604L147.721 9.57102L148.165 9.8ZM148.165 4.292L147.718 4.51567L147.724 4.52594L148.165 4.292ZM146.509 2.384L146.229 2.79779L146.235 2.80223L146.509 2.384ZM142.693 1.7V1.2H142.193V1.7H142.693ZM142.693 12.32H142.193V12.82H142.693V12.32ZM148.669 23.516L148.295 23.1843L148.295 23.1843L148.669 23.516ZM142.693 13.22V12.72H142.193V13.22H142.693ZM142.693 25.1H142.193V25.6H142.693V25.1ZM134.715 25.9451L136.875 25.4051L136.632 24.4349L134.472 24.9749L134.715 25.9451ZM137.253 24.92V1.88H136.253V24.92H137.253ZM136.875 1.39493L134.715 0.854927L134.472 1.82507L136.632 2.36507L136.875 1.39493ZM135.093 1.34V0.799998H134.093V1.34H135.093ZM134.593 1.3H144.313V0.299998H134.593V1.3ZM144.313 1.3C147.928 1.3 150.479 1.88643 152.057 2.97551L152.625 2.15249C150.796 0.88957 147.995 0.299998 144.313 0.299998V1.3ZM152.064 2.98002C153.671 4.05123 154.433 5.41561 154.433 7.1H155.433C155.433 5.04039 154.468 3.38077 152.619 2.14797L152.064 2.98002ZM154.433 7.1C154.433 8.29483 154.094 9.20775 153.453 9.88966L154.182 10.5743C155.029 9.67225 155.433 8.49717 155.433 7.1H154.433ZM153.453 9.88966C152.772 10.6144 151.898 11.1607 150.815 11.5217L151.132 12.4703C152.353 12.0633 153.375 11.4336 154.182 10.5743L153.453 9.88966ZM150.807 11.5245C149.638 11.937 148.372 12.1569 147.005 12.1801L147.022 13.1799C148.487 13.1551 149.861 12.919 151.14 12.4675L150.807 11.5245ZM146.513 12.68V12.86H147.513V12.68H146.513ZM146.993 13.3596C148.708 13.4301 150.181 13.6879 151.419 14.1237L151.751 13.1803C150.398 12.7041 148.823 12.4339 147.034 12.3604L146.993 13.3596ZM151.43 14.1272C152.679 14.5361 153.697 15.1664 154.498 16.0119L155.224 15.3241C154.297 14.3456 153.131 13.6319 151.741 13.1768L151.43 14.1272ZM154.503 16.0168C155.29 16.8246 155.693 17.8583 155.693 19.16H156.693C156.693 17.6297 156.209 16.3354 155.22 15.3192L154.503 16.0168ZM155.693 19.16C155.693 21.1326 154.897 22.6596 153.279 23.7901L153.852 24.6099C155.738 23.2924 156.693 21.4594 156.693 19.16H155.693ZM153.283 23.7875C151.659 24.8996 148.943 25.5 145.033 25.5V26.5C148.996 26.5 151.968 25.9004 153.848 24.6125L153.283 23.7875ZM145.033 25.5H134.593V26.5H145.033V25.5ZM135.093 26V25.46H134.093V26H135.093ZM144.313 12.82C145.202 12.82 146.028 12.576 146.78 12.0926L146.239 11.2514C145.647 11.632 145.009 11.82 144.313 11.82V12.82ZM146.783 12.0902C147.557 11.5836 148.165 10.8921 148.61 10.029L147.721 9.57102C147.35 10.2919 146.854 10.8484 146.235 11.2538L146.783 12.0902ZM148.607 10.0339C149.08 9.14114 149.313 8.16004 149.313 7.1H148.313C148.313 8.00796 148.115 8.82685 147.724 9.56606L148.607 10.0339ZM149.313 7.1C149.313 5.97427 149.083 4.9559 148.607 4.05805L147.724 4.52594C148.112 5.2601 148.313 6.11373 148.313 7.1H149.313ZM148.613 4.06839C148.169 3.18119 147.56 2.47479 146.783 1.96577L146.235 2.80223C146.851 3.20521 147.346 3.7708 147.718 4.51561L148.613 4.06839ZM146.79 1.97026C146.038 1.45957 145.208 1.2 144.313 1.2V2.2C145.003 2.2 145.637 2.39643 146.229 2.79774L146.79 1.97026ZM144.313 1.2H142.693V2.2H144.313V1.2ZM142.193 1.7V12.32H143.193V1.7H142.193ZM142.693 12.82H144.313V11.82H142.693V12.82ZM145.033 25.6C146.656 25.6 148.007 25.0172 149.044 23.8477L148.295 23.1843C147.46 24.1268 146.387 24.6 145.033 24.6V25.6ZM149.044 23.8477C150.083 22.6749 150.573 21.0916 150.573 19.16H149.573C149.573 20.9244 149.128 22.2451 148.295 23.1843L149.044 23.8477ZM150.573 19.16C150.573 17.2284 150.083 15.6451 149.044 14.4723L148.295 15.1357C149.128 16.0749 149.573 17.3956 149.573 19.16H150.573ZM149.044 14.4723C148.007 13.3028 146.656 12.72 145.033 12.72V13.72C146.387 13.72 147.46 14.1932 148.295 15.1357L149.044 14.4723ZM145.033 12.72H142.693V13.72H145.033V12.72ZM142.193 13.22V25.1H143.193V13.22H142.193ZM142.693 25.6H145.033V24.6H142.693V25.6ZM159.062 25.46L158.941 24.9749L158.562 25.0696V25.46H159.062ZM161.222 24.92L161.343 25.4051L161.722 25.3104V24.92H161.222ZM161.222 1.88H161.722V1.48961L161.343 1.39493L161.222 1.88ZM159.062 1.34H158.562V1.73039L158.941 1.82507L159.062 1.34ZM159.062 0.799998V0.299998H158.562V0.799998H159.062ZM166.982 24.92H166.482V25.3104L166.861 25.4051L166.982 24.92ZM169.142 25.46H169.642V25.0696L169.263 24.9749L169.142 25.46ZM169.142 26V26.5H169.642V26H169.142ZM159.062 26H158.562V26.5H159.062V26ZM159.183 25.9451L161.343 25.4051L161.101 24.4349L158.941 24.9749L159.183 25.9451ZM161.722 24.92V1.88H160.722V24.92H161.722ZM161.343 1.39493L159.183 0.854927L158.941 1.82507L161.101 2.36507L161.343 1.39493ZM159.562 1.34V0.799998H158.562V1.34H159.562ZM159.062 1.3H163.742V0.299998H159.062V1.3ZM163.742 1.3C164.745 1.3 165.405 1.55039 165.819 1.96355C166.232 2.37671 166.482 3.03707 166.482 4.04H167.482C167.482 2.88293 167.193 1.92329 166.526 1.25645C165.859 0.589605 164.899 0.299998 163.742 0.299998V1.3ZM166.482 4.04V24.92H167.482V4.04H166.482ZM166.861 25.4051L169.021 25.9451L169.263 24.9749L167.103 24.4349L166.861 25.4051ZM168.642 25.46V26H169.642V25.46H168.642ZM169.142 25.5H159.062V26.5H169.142V25.5ZM159.562 26V25.46H158.562V26H159.562ZM174.177 24.02L173.82 24.3711L173.826 24.3761L174.177 24.02ZM174.177 10.016L173.823 9.66245L173.823 9.66245L174.177 10.016ZM188.181 10.016L187.824 10.3671L187.83 10.3721L188.181 10.016ZM188.181 24.02L187.827 23.6664L187.827 23.6664L188.181 24.02ZM183.609 23.804L183.161 23.5804L183.158 23.5869L183.609 23.804ZM183.609 10.196L183.158 10.4132L183.161 10.4196L183.609 10.196ZM178.749 10.196L178.301 9.97237L178.298 9.97885L178.749 10.196ZM178.749 23.804L178.298 24.0212L178.301 24.0276L178.749 23.804ZM181.197 26.04C178.318 26.04 176.116 25.2304 174.528 23.6639L173.826 24.3761C175.645 26.1696 178.123 27.04 181.197 27.04V26.04ZM174.533 23.669C172.966 22.0801 172.157 19.8784 172.157 17H171.157C171.157 20.0736 172.027 22.5519 173.821 24.371L174.533 23.669ZM172.157 17C172.157 14.1213 172.966 11.9334 174.53 10.3696L173.823 9.66245C172.027 11.4586 171.157 13.9267 171.157 17H172.157ZM174.53 10.3696C176.119 8.78035 178.32 7.96 181.197 7.96V6.96C178.121 6.96 175.642 7.84365 173.823 9.66245L174.53 10.3696ZM181.197 7.96C184.073 7.96 186.26 8.78043 187.825 10.367L188.537 9.66496C186.741 7.84356 184.272 6.96 181.197 6.96V7.96ZM187.83 10.3721C189.416 11.9363 190.237 14.1233 190.237 17H191.237C191.237 13.9247 190.353 11.4557 188.532 9.65995L187.83 10.3721ZM190.237 17C190.237 19.8764 189.416 22.0772 187.827 23.6664L188.534 24.3736C190.353 22.5548 191.237 20.0756 191.237 17H190.237ZM187.827 23.6664C186.263 25.2303 184.075 26.04 181.197 26.04V27.04C184.27 27.04 186.738 26.1697 188.534 24.3736L187.827 23.6664ZM181.197 26.32C182.443 26.32 183.379 25.432 184.059 24.0211L183.158 23.5869C182.542 24.864 181.87 25.32 181.197 25.32V26.32ZM184.056 24.0276C184.784 22.5716 185.117 20.2012 185.117 17H184.117C184.117 20.1828 183.777 22.3484 183.161 23.5804L184.056 24.0276ZM185.117 17C185.117 13.7988 184.784 11.4284 184.056 9.97239L183.161 10.4196C183.777 11.6516 184.117 13.8172 184.117 17H185.117ZM184.059 9.97885C183.379 8.56801 182.443 7.68 181.197 7.68V8.68C181.87 8.68 182.542 9.13599 183.158 10.4131L184.059 9.97885ZM181.197 7.68C179.953 7.68 179.006 8.56396 178.301 9.97239L179.196 10.4196C179.836 9.14004 180.52 8.68 181.197 8.68V7.68ZM178.298 9.97885C177.597 11.4323 177.277 13.7996 177.277 17H178.277C178.277 13.8164 178.604 11.6477 179.199 10.4131L178.298 9.97885ZM177.277 17C177.277 20.2004 177.597 22.5677 178.298 24.0211L179.199 23.5869C178.604 22.3523 178.277 20.1836 178.277 17H177.277ZM178.301 24.0276C179.006 25.436 179.953 26.32 181.197 26.32V25.32C180.52 25.32 179.836 24.86 179.196 23.5804L178.301 24.0276ZM193.989 25.46L193.868 24.9749L193.489 25.0696V25.46H193.989ZM196.149 24.92L196.27 25.4051L196.649 25.3104V24.92H196.149ZM196.149 9.08H196.649V8.68961L196.27 8.59493L196.149 9.08ZM193.989 8.54H193.489V8.93039L193.868 9.02507L193.989 8.54ZM193.989 8V7.5H193.489V8H193.989ZM200.577 9.368L200.955 9.04049L200.95 9.0346L200.577 9.368ZM201.369 10.7L200.906 10.8893L201.307 11.8694L201.809 10.937L201.369 10.7ZM202.557 9.08L202.911 9.43355L202.911 9.43355L202.557 9.08ZM210.189 8.324L209.95 8.76311L209.962 8.76922L210.189 8.324ZM212.709 10.52L212.292 10.7948L212.292 10.7948L212.709 10.52ZM213.609 24.92H213.109V25.3104L213.488 25.4051L213.609 24.92ZM215.769 25.46H216.269V25.0696L215.89 24.9749L215.769 25.46ZM215.769 26V26.5H216.269V26H215.769ZM207.021 9.944L206.601 10.2156L206.606 10.2228L206.611 10.2299L207.021 9.944ZM202.701 10.16L203.098 10.4637L203.101 10.46L202.701 10.16ZM201.909 11.6L201.444 11.4178L201.409 11.5057V11.6H201.909ZM201.909 24.92H201.409V25.3104L201.788 25.4051L201.909 24.92ZM204.069 25.46H204.569V25.0696L204.19 24.9749L204.069 25.46ZM204.069 26V26.5H204.569V26H204.069ZM193.989 26H193.489V26.5H193.989V26ZM194.11 25.9451L196.27 25.4051L196.028 24.4349L193.868 24.9749L194.11 25.9451ZM196.649 24.92V9.08H195.649V24.92H196.649ZM196.27 8.59493L194.11 8.05493L193.868 9.02507L196.028 9.56507L196.27 8.59493ZM194.489 8.54V8H193.489V8.54H194.489ZM193.989 8.5H197.229V7.5H193.989V8.5ZM197.229 8.5C198.528 8.5 199.499 8.91247 200.205 9.7014L200.95 9.0346C200.024 7.99953 198.763 7.5 197.229 7.5V8.5ZM200.199 9.69547C200.47 10.0071 200.707 10.402 200.906 10.8893L201.832 10.5107C201.599 9.94197 201.309 9.44886 200.955 9.04053L200.199 9.69547ZM201.809 10.937C202.125 10.3517 202.492 9.85192 202.911 9.43355L202.204 8.72645C201.71 9.22007 201.286 9.80031 200.929 10.4629L201.809 10.937ZM202.911 9.43355C203.892 8.45269 205.106 7.96 206.589 7.96V6.96C204.856 6.96 203.383 7.54731 202.204 8.72645L202.911 9.43355ZM206.589 7.96C207.86 7.96 208.976 8.23153 209.95 8.76295L210.429 7.88505C209.291 7.26446 208.007 6.96 206.589 6.96V7.96ZM209.962 8.76922C210.973 9.2863 211.744 9.9629 212.292 10.7948L213.127 10.2452C212.474 9.2531 211.565 8.4657 210.417 7.87878L209.962 8.76922ZM212.292 10.7948C212.842 11.6323 213.109 12.4978 213.109 13.4H214.109C214.109 12.2862 213.776 11.2317 213.127 10.2452L212.292 10.7948ZM213.109 13.4V24.92H214.109V13.4H213.109ZM213.488 25.4051L215.648 25.9451L215.89 24.9749L213.73 24.4349L213.488 25.4051ZM215.269 25.46V26H216.269V25.46H215.269ZM215.769 25.5H211.089V26.5H215.769V25.5ZM211.089 25.5C210.086 25.5 209.426 25.2496 209.013 24.8364C208.6 24.4233 208.349 23.7629 208.349 22.76H207.349C207.349 23.9171 207.639 24.8767 208.306 25.5436C208.973 26.2104 209.932 26.5 211.089 26.5V25.5ZM208.349 22.76V13.4H207.349V22.76H208.349ZM208.349 13.4C208.349 11.8394 208.066 10.5692 207.431 9.6581L206.611 10.2299C207.08 10.9028 207.349 11.9366 207.349 13.4H208.349ZM207.441 9.67237C206.857 8.76925 206.096 8.22 205.149 8.22V9.22C205.643 9.22 206.13 9.48675 206.601 10.2156L207.441 9.67237ZM205.149 8.22C204.033 8.22 203.083 8.81742 202.301 9.86L203.101 10.46C203.759 9.58258 204.442 9.22 205.149 9.22V8.22ZM202.304 9.85627C201.96 10.3066 201.674 10.8288 201.444 11.4178L202.375 11.7822C202.576 11.2672 202.819 10.8294 203.098 10.4637L202.304 9.85627ZM201.409 11.6V24.92H202.409V11.6H201.409ZM201.788 25.4051L203.948 25.9451L204.19 24.9749L202.03 24.4349L201.788 25.4051ZM203.569 25.46V26H204.569V25.46H203.569ZM204.069 25.5H193.989V26.5H204.069V25.5ZM194.489 26V25.46H193.489V26H194.489ZM221.891 25.46L221.611 25.8747L221.617 25.8788L221.891 25.46ZM219.263 22.22L218.807 22.4252L218.808 22.4281L219.263 22.22ZM220.415 9.944L220.037 9.61591L220.037 9.61632L220.415 9.944ZM229.235 8.18L228.992 8.61708L229.007 8.62564L229.023 8.63309L229.235 8.18ZM230.351 8.9L230.035 9.28806L230.851 9.95048V8.9H230.351ZM230.351 1.88H230.851V1.48961L230.472 1.39493L230.351 1.88ZM228.191 1.34H227.691V1.73039L228.069 1.82507L228.191 1.34ZM228.191 0.799998V0.299998H227.691V0.799998H228.191ZM236.111 24.92H235.611V25.3104L235.989 25.4051L236.111 24.92ZM238.271 25.46H238.771V25.0696L238.392 24.9749L238.271 25.46ZM238.271 26V26.5H238.771V26H238.271ZM231.683 24.668L232.056 24.3351L232.048 24.3268L231.683 24.668ZM230.891 23.3L231.363 23.1357L230.982 22.0406L230.447 23.0693L230.891 23.3ZM229.703 24.92L230.056 25.2736L230.056 25.2736L229.703 24.92ZM229.523 23.84L229.923 24.14L229.926 24.1357L229.523 23.84ZM230.351 22.4L230.801 22.6164L230.851 22.5138V22.4H230.351ZM230.351 9.98H230.851V9.77289L230.704 9.62645L230.351 9.98ZM229.523 9.26L229.823 8.85999L229.82 8.85822L229.523 9.26ZM225.239 10.34L224.788 10.1236L224.784 10.131L225.239 10.34ZM225.167 23.48L224.704 23.6704L224.709 23.6814L225.167 23.48ZM225.671 26.04C224.344 26.04 223.18 25.7042 222.164 25.0412L221.617 25.8788C222.809 26.6558 224.165 27.04 225.671 27.04V26.04ZM222.17 25.0454C221.155 24.361 220.334 23.3587 219.717 22.0119L218.808 22.4281C219.488 23.9133 220.419 25.071 221.611 25.8746L222.17 25.0454ZM219.719 22.0148C219.107 20.6552 218.791 18.9891 218.791 17H217.791C217.791 19.0909 218.122 20.9048 218.807 22.4252L219.719 22.0148ZM218.791 17C218.791 13.9982 219.483 11.7809 220.792 10.2717L220.037 9.61632C218.514 11.3711 217.791 13.8578 217.791 17H218.791ZM220.792 10.2721C222.126 8.7375 223.914 7.96 226.211 7.96V6.96C223.659 6.96 221.583 7.8385 220.037 9.61591L220.792 10.2721ZM226.211 7.96C227.292 7.96 228.214 8.18471 228.992 8.61708L229.477 7.74292C228.528 7.21528 227.433 6.96 226.211 6.96V7.96ZM229.023 8.63309C229.338 8.78013 229.676 8.99588 230.035 9.28806L230.666 8.51194C230.258 8.18012 229.851 7.91587 229.446 7.72691L229.023 8.63309ZM230.851 8.9V1.88H229.851V8.9H230.851ZM230.472 1.39493L228.312 0.854927L228.069 1.82507L230.229 2.36507L230.472 1.39493ZM228.691 1.34V0.799998H227.691V1.34H228.691ZM228.191 1.3H232.871V0.299998H228.191V1.3ZM232.871 1.3C233.874 1.3 234.534 1.55039 234.947 1.96355C235.36 2.37671 235.611 3.03707 235.611 4.04H236.611C236.611 2.88293 236.321 1.92329 235.654 1.25645C234.987 0.589605 234.028 0.299998 232.871 0.299998V1.3ZM235.611 4.04V24.92H236.611V4.04H235.611ZM235.989 25.4051L238.149 25.9451L238.392 24.9749L236.232 24.4349L235.989 25.4051ZM237.771 25.46V26H238.771V25.46H237.771ZM238.271 25.5H235.031V26.5H238.271V25.5ZM235.031 25.5C233.701 25.5 232.733 25.0947 232.056 24.3352L231.309 25.0008C232.216 26.0173 233.481 26.5 235.031 26.5V25.5ZM232.048 24.3268C231.768 24.0263 231.536 23.6341 231.363 23.1357L230.418 23.4643C230.629 24.0699 230.926 24.5897 231.317 25.0092L232.048 24.3268ZM230.447 23.0693C230.159 23.6238 229.793 24.1224 229.349 24.5664L230.056 25.2736C230.572 24.7576 230.999 24.1762 231.334 23.5307L230.447 23.0693ZM229.349 24.5664C228.368 25.5473 227.154 26.04 225.671 26.04V27.04C227.403 27.04 228.877 26.4527 230.056 25.2736L229.349 24.5664ZM227.111 25.78C228.207 25.78 229.144 25.1782 229.923 24.14L229.123 23.54C228.461 24.4218 227.79 24.78 227.111 24.78V25.78ZM229.926 24.1357C230.215 23.7419 230.506 23.2321 230.801 22.6164L229.9 22.1836C229.619 22.7679 229.359 23.2181 229.119 23.5443L229.926 24.1357ZM230.851 22.4V9.98H229.851V22.4H230.851ZM230.704 9.62645C230.424 9.34633 230.13 9.09071 229.823 8.86L229.223 9.66C229.491 9.86129 229.749 10.0857 229.997 10.3336L230.704 9.62645ZM229.82 8.85822C229.115 8.33613 228.389 8.04 227.651 8.04V9.04C228.112 9.04 228.634 9.22387 229.225 9.66178L229.82 8.85822ZM227.651 8.04C226.368 8.04 225.418 8.81021 224.788 10.1236L225.689 10.5564C226.211 9.46979 226.87 9.04 227.651 9.04V8.04ZM224.784 10.131C224.182 11.4415 223.911 13.7636 223.911 17H224.911C224.911 13.7564 225.192 11.6385 225.693 10.549L224.784 10.131ZM223.911 17C223.911 20.0968 224.159 22.3462 224.704 23.6704L225.629 23.2896C225.166 22.1658 224.911 20.0952 224.911 17H223.911ZM224.709 23.6814C225.256 24.9246 226.028 25.78 227.111 25.78V24.78C226.657 24.78 226.133 24.4354 225.624 23.2786L224.709 23.6814ZM243.531 24.02L243.177 24.3736L243.18 24.3761L243.531 24.02ZM242.091 11.924L241.647 11.6945L241.647 11.6945L242.091 11.924ZM245.187 8.612L244.939 8.17786L244.935 8.17983L245.187 8.612ZM254.331 8.432L254.107 8.87922L254.111 8.88083L254.331 8.432ZM257.355 11.06L256.932 11.3267L256.939 11.3373L257.355 11.06ZM258.255 16.208L258.735 16.3491L258.737 16.3418L258.255 16.208ZM258.075 16.82L258.177 17.3094L258.47 17.2481L258.555 16.9611L258.075 16.82ZM254.727 17.36L254.667 16.8634L254.656 16.865L254.727 17.36ZM247.095 17.9V17.4H246.595V17.9H247.095ZM248.247 23.876L247.826 24.1455L247.828 24.1494L248.247 23.876ZM254.007 24.992L254.246 25.431L254.251 25.4285L254.007 24.992ZM255.915 23.228L255.495 22.9569L255.492 22.9605L255.915 23.228ZM256.635 20.96V20.46H256.135V20.96H256.635ZM257.535 20.96H258.035V20.46H257.535V20.96ZM256.671 23.696L256.255 23.4186L256.255 23.4186L256.671 23.696ZM254.259 25.784L254.478 26.2334L254.487 26.2291L254.259 25.784ZM247.095 17H246.595V17.5H247.095V17ZM250.839 16.82L250.809 16.3209L250.793 16.3218L250.777 16.3239L250.839 16.82ZM252.135 16.64L252.238 17.1293L252.56 17.0614L252.625 16.7381L252.135 16.64ZM252.315 15.848L252.802 15.9625L252.803 15.9543L252.805 15.9461L252.315 15.848ZM251.703 9.584L251.267 9.82967L251.27 9.83452L251.703 9.584ZM250.695 26.04C247.715 26.04 245.468 25.2276 243.882 23.6639L243.18 24.3761C245.002 26.1724 247.53 27.04 250.695 27.04V26.04ZM243.884 23.6664C242.295 22.0772 241.475 19.8764 241.475 17H240.475C240.475 20.0756 241.358 22.5548 243.177 24.3736L243.884 23.6664ZM241.475 17C241.475 15.1201 241.834 13.5097 242.535 12.1535L241.647 11.6945C240.859 13.2183 240.475 14.9919 240.475 17H241.475ZM242.535 12.1535C243.238 10.7926 244.206 9.76135 245.438 9.04417L244.935 8.17983C243.528 8.99865 242.432 10.1754 241.647 11.6945L242.535 12.1535ZM245.435 9.04612C246.695 8.32615 248.144 7.96 249.795 7.96V6.96C247.99 6.96 246.367 7.36185 244.939 8.17788L245.435 9.04612ZM249.795 7.96C251.46 7.96 252.893 8.272 254.107 8.87921L254.554 7.98479C253.177 7.296 251.586 6.96 249.795 6.96V7.96ZM254.111 8.88083C255.358 9.49334 256.291 10.3106 256.932 11.3266L257.778 10.7933C257.026 9.60144 255.943 8.66666 254.551 7.98316L254.111 8.88083ZM256.939 11.3373C257.603 12.3337 257.935 13.4369 257.935 14.66H258.935C258.935 13.2431 258.547 11.9463 257.771 10.7826L256.939 11.3373ZM257.935 14.66C257.935 15.229 257.878 15.6976 257.773 16.0742L258.737 16.3418C258.872 15.8544 258.935 15.291 258.935 14.66H257.935ZM257.775 16.0669L257.595 16.6789L258.555 16.9611L258.735 16.3491L257.775 16.0669ZM257.972 16.3306C256.956 16.5432 255.855 16.721 254.667 16.8636L254.786 17.8564C255.999 17.711 257.129 17.5288 258.177 17.3094L257.972 16.3306ZM254.656 16.865C252.16 17.2216 249.639 17.4 247.095 17.4V18.4C249.686 18.4 252.254 18.2183 254.798 17.855L254.656 16.865ZM246.595 17.9C246.595 20.7037 246.977 22.8189 247.826 24.1455L248.668 23.6065C247.981 22.5331 247.595 20.6643 247.595 17.9H246.595ZM247.828 24.1494C248.684 25.4591 249.893 26.14 251.415 26.14V25.14C250.249 25.14 249.346 24.6449 248.665 23.6026L247.828 24.1494ZM251.415 26.14C252.431 26.14 253.378 25.9045 254.246 25.4309L253.767 24.5531C253.052 24.9435 252.27 25.14 251.415 25.14V26.14ZM254.251 25.4285C255.132 24.9359 255.833 24.2925 256.337 23.4955L255.492 22.9605C255.085 23.6035 254.514 24.1361 253.763 24.5555L254.251 25.4285ZM256.335 23.4991C256.859 22.6869 257.135 21.8382 257.135 20.96H256.135C256.135 21.6178 255.931 22.2811 255.495 22.9569L256.335 23.4991ZM256.635 21.46H257.535V20.46H256.635V21.46ZM257.035 20.96C257.035 21.8132 256.781 22.6298 256.255 23.4186L257.087 23.9733C257.713 23.0342 258.035 22.0268 258.035 20.96H257.035ZM256.255 23.4186C255.732 24.2036 254.996 24.8452 254.031 25.3389L254.487 26.2291C255.586 25.6668 256.458 24.9164 257.087 23.9733L256.255 23.4186ZM254.039 25.3347C253.086 25.8001 251.976 26.04 250.695 26.04V27.04C252.102 27.04 253.367 26.7759 254.478 26.2333L254.039 25.3347ZM247.095 17.5C248.641 17.5 249.912 17.4397 250.901 17.3161L250.777 16.3239C249.846 16.4403 248.621 16.5 247.095 16.5V17.5ZM250.868 17.3191C251.304 17.2935 251.761 17.2297 252.238 17.1293L252.032 16.1507C251.597 16.2423 251.19 16.2985 250.809 16.3209L250.868 17.3191ZM252.625 16.7381C252.647 16.6279 252.705 16.3727 252.802 15.9625L251.828 15.7335C251.733 16.1393 251.671 16.4121 251.645 16.5419L252.625 16.7381ZM252.805 15.9461C252.932 15.3108 252.995 14.6417 252.995 13.94H251.995C251.995 14.5823 251.938 15.1852 251.825 15.7499L252.805 15.9461ZM252.995 13.94C252.995 11.9257 252.732 10.3633 252.136 9.33348L251.27 9.83452C251.73 10.6287 251.995 11.9703 251.995 13.94H252.995ZM252.138 9.33834C251.565 8.32264 250.793 7.68 249.795 7.68V8.68C250.284 8.68 250.784 8.97336 251.267 9.82966L252.138 9.33834ZM249.795 7.68C248.538 7.68 247.754 8.72858 247.292 10.2386C246.819 11.7815 246.595 14.0469 246.595 17H247.595C247.595 14.0731 247.82 11.9285 248.248 10.5314C248.686 9.10142 249.252 8.68 249.795 8.68V7.68Z" fill="black" mask="url(#path-1-outside-1_190_601)"/>
</svg>
