<svg width="365" height="219" viewBox="0 0 365 219" fill="none" xmlns="http://www.w3.org/2000/svg">
<mask id="path-1-outside-1_212_687" maskUnits="userSpaceOnUse" x="4" y="21" width="347" height="174" fill="black">
<rect fill="white" x="4" y="21" width="347" height="174"/>
<path d="M5 90.5L11 89V25L5 23.5V22H58.5V40H55.5C54.2333 39 53.1333 37.7333 52.2 36.2C50.0667 32.6 49 28.7 49 24.5H27.5V56H39C39.4667 53.4667 40.3333 51.1 41.6 48.9C42.1333 47.9 42.7667 46.9333 43.5 46H46.5V68.5H43.5C42.7667 67.5667 42.1333 66.6 41.6 65.6C40.3333 63.4 39.4667 61.0333 39 58.5H27.5V89L33.5 90.5V92H5V90.5ZM88.0313 93.5C84.2979 93.5 80.9313 92.7333 77.9313 91.2C74.9979 89.6 72.6979 87.5333 71.0313 85C69.3646 82.4667 68.5313 79.8 68.5313 77V45L62.5313 43.5V42H75.5313C81.5313 42 84.5313 45 84.5313 51V77C84.5313 81.2 85.2646 84.4333 86.7313 86.7C88.2646 88.9 90.0313 90 92.0313 90C94.4979 90 96.7313 88.6667 98.7313 86C99.4646 85 100.231 83.6667 101.031 82V45L95.0313 43.5V42H123.031V43.5L117.031 45V92.5H116.031C111.165 92.5 107.465 91.1667 104.931 88.5C103.798 87.3 102.998 85.9667 102.531 84.5C101.598 86.1667 100.498 87.6667 99.2313 89C96.2313 92 92.4979 93.5 88.0313 93.5ZM158.07 93.5C153.67 93.5 149.837 92.7 146.57 91.1C143.37 89.5 140.904 87.3 139.17 84.5C137.437 81.7 136.57 78.5333 136.57 75V44.5H129.57V42H136.57V37C136.57 31 139.57 28 145.57 28H152.57V42H166.57V44.5H152.57V75C152.57 81.1333 153.204 85.3333 154.47 87.6C155.737 89.8667 157.604 91 160.07 91C162.47 91 164.57 89.8333 166.37 87.5C168.17 85.1667 169.07 82 169.07 78H171.57C171.57 82.9333 170.337 86.7667 167.87 89.5C165.404 92.1667 162.137 93.5 158.07 93.5ZM202.137 93.5C198.403 93.5 195.037 92.7333 192.037 91.2C189.103 89.6 186.803 87.5333 185.137 85C183.47 82.4667 182.637 79.8 182.637 77V45L176.637 43.5V42H189.637C195.637 42 198.637 45 198.637 51V77C198.637 81.2 199.37 84.4333 200.837 86.7C202.37 88.9 204.137 90 206.137 90C208.603 90 210.837 88.6667 212.837 86C213.57 85 214.337 83.6667 215.137 82V45L209.137 43.5V42H237.137V43.5L231.137 45V92.5H230.137C225.27 92.5 221.57 91.1667 219.037 88.5C217.903 87.3 217.103 85.9667 216.637 84.5C215.703 86.1667 214.603 87.6667 213.337 89C210.337 92 206.603 93.5 202.137 93.5ZM246.176 90.5L252.176 89V45L246.176 43.5V42H255.176C259.109 42 262.209 43.2667 264.476 45.8C265.342 46.8 266.076 48.0333 266.676 49.5C267.676 48.0333 268.909 46.7 270.376 45.5C273.709 42.8333 277.442 41.5 281.576 41.5C285.109 41.5 287.742 42.3333 289.476 44C291.276 45.6 292.176 47.9333 292.176 51C292.176 53.2667 291.476 55.1 290.076 56.5C288.742 57.8333 286.942 58.5 284.676 58.5C283.742 58.5 282.809 58.4333 281.876 58.3L280.676 58V44C277.276 44 274.176 45.3333 271.376 48C270.042 49.3333 268.976 50.6667 268.176 52V89L274.176 90.5V92H246.176V90.5ZM326.664 93.5C318.131 93.5 311.497 91.1667 306.764 86.5C302.031 81.7667 299.664 75.2667 299.664 67C299.664 61.6 300.697 56.9 302.764 52.9C304.831 48.9 307.697 45.8333 311.364 43.7C315.097 41.5667 319.364 40.5 324.164 40.5C328.964 40.5 333.164 41.4 336.764 43.2C340.431 45 343.231 47.4333 345.164 50.5C347.164 53.5 348.164 56.8333 348.164 60.5C348.164 62.1667 347.997 63.6 347.664 64.8L347.164 66.5C344.297 67.1 341.197 67.6 337.864 68C330.864 69 323.797 69.5 316.664 69.5C316.664 77.2333 317.731 82.7667 319.864 86.1C321.997 89.3667 324.931 91 328.664 91C331.264 91 333.664 90.4 335.864 89.2C338.131 87.9333 339.897 86.3 341.164 84.3C342.497 82.2333 343.164 80.1333 343.164 78H345.664C345.664 80.6667 344.864 83.2 343.264 85.6C341.664 88 339.431 89.9333 336.564 91.4C333.697 92.8 330.397 93.5 326.664 93.5ZM316.664 67C320.931 67 324.397 66.8333 327.064 66.5C328.197 66.4333 329.397 66.2667 330.664 66C330.731 65.6667 330.897 64.9333 331.164 63.8C331.497 62.1333 331.664 60.3667 331.664 58.5C331.664 52.9667 330.931 48.9333 329.464 46.4C327.997 43.8 326.231 42.5 324.164 42.5C319.164 42.5 316.664 50.6667 316.664 67ZM5 190.5L11 189V125L5 123.5V122H32C42.1333 122 49.5667 123.633 54.3 126.9C59.1 130.1 61.5 134.3 61.5 139.5C61.5 143.1 60.4667 146 58.4 148.2C56.3333 150.4 53.7 152.033 50.5 153.1C47.1 154.3 43.4333 154.933 39.5 155V155.5C44.3667 155.7 48.6 156.433 52.2 157.7C55.8667 158.9 58.9 160.767 61.3 163.3C63.7667 165.833 65 169.067 65 173C65 178.933 62.5667 183.6 57.7 187C52.8333 190.333 44.9333 192 34 192H5V190.5ZM32 154C34.2 154 36.2333 153.4 38.1 152.2C40.0333 150.933 41.5667 149.2 42.7 147C43.9 144.733 44.5 142.233 44.5 139.5C44.5 136.567 43.9 133.967 42.7 131.7C41.5667 129.433 40.0333 127.667 38.1 126.4C36.2333 125.133 34.2 124.5 32 124.5H27.5V154H32ZM34 189.5C38.1333 189.5 41.5 188.033 44.1 185.1C46.7 182.167 48 178.133 48 173C48 167.867 46.7 163.833 44.1 160.9C41.5 157.967 38.1333 156.5 34 156.5H27.5V189.5H34ZM72.9688 190.5L78.9688 189V125L72.9688 123.5V122H85.9688C91.9688 122 94.9688 125 94.9688 131V189L100.969 190.5V192H72.9688V190.5ZM134.453 193.5C126.186 193.5 119.686 191.167 114.953 186.5C110.286 181.767 107.953 175.267 107.953 167C107.953 158.733 110.286 152.267 114.953 147.6C119.686 142.867 126.186 140.5 134.453 140.5C142.72 140.5 149.186 142.867 153.853 147.6C158.586 152.267 160.953 158.733 160.953 167C160.953 175.267 158.586 181.767 153.853 186.5C149.186 191.167 142.72 193.5 134.453 193.5ZM134.453 191.5C137.12 191.5 139.353 189.633 141.153 185.9C143.02 182.167 143.953 175.867 143.953 167C143.953 158.133 143.02 151.833 141.153 148.1C139.353 144.367 137.12 142.5 134.453 142.5C131.786 142.5 129.52 144.367 127.653 148.1C125.853 151.833 124.953 158.133 124.953 167C124.953 175.867 125.853 182.167 127.653 185.9C129.52 189.633 131.786 191.5 134.453 191.5ZM169.988 190.5L175.988 189V145L169.988 143.5V142H178.988C182.922 142 186.022 143.267 188.288 145.8C189.155 146.8 189.888 148.033 190.488 149.5C191.422 147.767 192.522 146.267 193.788 145C196.788 142 200.522 140.5 204.988 140.5C208.722 140.5 212.055 141.3 214.988 142.9C217.988 144.433 220.322 146.467 221.988 149C223.655 151.533 224.488 154.2 224.488 157V189L230.488 190.5V192H217.488C211.488 192 208.488 189 208.488 183V157C208.488 152.8 207.722 149.6 206.188 147.4C204.722 145.133 202.988 144 200.988 144C198.455 144 196.188 145.333 194.188 148C193.322 149.133 192.588 150.467 191.988 152V189L197.988 190.5V192H169.988V190.5ZM257.992 193.5C254.059 193.5 250.559 192.5 247.492 190.5C244.426 188.433 241.992 185.433 240.192 181.5C238.392 177.5 237.492 172.667 237.492 167C237.492 158.467 239.459 151.933 243.392 147.4C247.392 142.8 252.759 140.5 259.492 140.5C262.692 140.5 265.492 141.167 267.892 142.5C268.892 142.967 269.926 143.633 270.992 144.5V125L264.992 123.5V122H277.992C283.992 122 286.992 125 286.992 131V189L292.992 190.5V192H283.992C279.992 192 276.892 190.767 274.692 188.3C273.759 187.3 273.026 186.033 272.492 184.5C271.626 186.167 270.526 187.667 269.192 189C266.192 192 262.459 193.5 257.992 193.5ZM261.992 190C264.459 190 266.692 188.667 268.692 186C269.426 185 270.192 183.667 270.992 182V147.5C270.259 146.767 269.492 146.1 268.692 145.5C266.892 144.167 265.159 143.5 263.492 143.5C260.626 143.5 258.392 145.167 256.792 148.5C255.259 151.833 254.492 158 254.492 167C254.492 175.6 255.192 181.6 256.592 185C258.059 188.333 259.859 190 261.992 190ZM327.504 193.5C318.971 193.5 312.337 191.167 307.604 186.5C302.871 181.767 300.504 175.267 300.504 167C300.504 161.6 301.537 156.9 303.604 152.9C305.671 148.9 308.537 145.833 312.204 143.7C315.937 141.567 320.204 140.5 325.004 140.5C329.804 140.5 334.004 141.4 337.604 143.2C341.271 145 344.071 147.433 346.004 150.5C348.004 153.5 349.004 156.833 349.004 160.5C349.004 162.167 348.837 163.6 348.504 164.8L348.004 166.5C345.137 167.1 342.037 167.6 338.704 168C331.704 169 324.637 169.5 317.504 169.5C317.504 177.233 318.571 182.767 320.704 186.1C322.837 189.367 325.771 191 329.504 191C332.104 191 334.504 190.4 336.704 189.2C338.971 187.933 340.737 186.3 342.004 184.3C343.337 182.233 344.004 180.133 344.004 178H346.504C346.504 180.667 345.704 183.2 344.104 185.6C342.504 188 340.271 189.933 337.404 191.4C334.537 192.8 331.237 193.5 327.504 193.5ZM317.504 167C321.771 167 325.237 166.833 327.904 166.5C329.037 166.433 330.237 166.267 331.504 166C331.571 165.667 331.737 164.933 332.004 163.8C332.337 162.133 332.504 160.367 332.504 158.5C332.504 152.967 331.771 148.933 330.304 146.4C328.837 143.8 327.071 142.5 325.004 142.5C320.004 142.5 317.504 150.667 317.504 167Z"/>
</mask>
<path d="M5 90.5L11 89V25L5 23.5V22H58.5V40H55.5C54.2333 39 53.1333 37.7333 52.2 36.2C50.0667 32.6 49 28.7 49 24.5H27.5V56H39C39.4667 53.4667 40.3333 51.1 41.6 48.9C42.1333 47.9 42.7667 46.9333 43.5 46H46.5V68.5H43.5C42.7667 67.5667 42.1333 66.6 41.6 65.6C40.3333 63.4 39.4667 61.0333 39 58.5H27.5V89L33.5 90.5V92H5V90.5ZM88.0313 93.5C84.2979 93.5 80.9313 92.7333 77.9313 91.2C74.9979 89.6 72.6979 87.5333 71.0313 85C69.3646 82.4667 68.5313 79.8 68.5313 77V45L62.5313 43.5V42H75.5313C81.5313 42 84.5313 45 84.5313 51V77C84.5313 81.2 85.2646 84.4333 86.7313 86.7C88.2646 88.9 90.0313 90 92.0313 90C94.4979 90 96.7313 88.6667 98.7313 86C99.4646 85 100.231 83.6667 101.031 82V45L95.0313 43.5V42H123.031V43.5L117.031 45V92.5H116.031C111.165 92.5 107.465 91.1667 104.931 88.5C103.798 87.3 102.998 85.9667 102.531 84.5C101.598 86.1667 100.498 87.6667 99.2313 89C96.2313 92 92.4979 93.5 88.0313 93.5ZM158.07 93.5C153.67 93.5 149.837 92.7 146.57 91.1C143.37 89.5 140.904 87.3 139.17 84.5C137.437 81.7 136.57 78.5333 136.57 75V44.5H129.57V42H136.57V37C136.57 31 139.57 28 145.57 28H152.57V42H166.57V44.5H152.57V75C152.57 81.1333 153.204 85.3333 154.47 87.6C155.737 89.8667 157.604 91 160.07 91C162.47 91 164.57 89.8333 166.37 87.5C168.17 85.1667 169.07 82 169.07 78H171.57C171.57 82.9333 170.337 86.7667 167.87 89.5C165.404 92.1667 162.137 93.5 158.07 93.5ZM202.137 93.5C198.403 93.5 195.037 92.7333 192.037 91.2C189.103 89.6 186.803 87.5333 185.137 85C183.47 82.4667 182.637 79.8 182.637 77V45L176.637 43.5V42H189.637C195.637 42 198.637 45 198.637 51V77C198.637 81.2 199.37 84.4333 200.837 86.7C202.37 88.9 204.137 90 206.137 90C208.603 90 210.837 88.6667 212.837 86C213.57 85 214.337 83.6667 215.137 82V45L209.137 43.5V42H237.137V43.5L231.137 45V92.5H230.137C225.27 92.5 221.57 91.1667 219.037 88.5C217.903 87.3 217.103 85.9667 216.637 84.5C215.703 86.1667 214.603 87.6667 213.337 89C210.337 92 206.603 93.5 202.137 93.5ZM246.176 90.5L252.176 89V45L246.176 43.5V42H255.176C259.109 42 262.209 43.2667 264.476 45.8C265.342 46.8 266.076 48.0333 266.676 49.5C267.676 48.0333 268.909 46.7 270.376 45.5C273.709 42.8333 277.442 41.5 281.576 41.5C285.109 41.5 287.742 42.3333 289.476 44C291.276 45.6 292.176 47.9333 292.176 51C292.176 53.2667 291.476 55.1 290.076 56.5C288.742 57.8333 286.942 58.5 284.676 58.5C283.742 58.5 282.809 58.4333 281.876 58.3L280.676 58V44C277.276 44 274.176 45.3333 271.376 48C270.042 49.3333 268.976 50.6667 268.176 52V89L274.176 90.5V92H246.176V90.5ZM326.664 93.5C318.131 93.5 311.497 91.1667 306.764 86.5C302.031 81.7667 299.664 75.2667 299.664 67C299.664 61.6 300.697 56.9 302.764 52.9C304.831 48.9 307.697 45.8333 311.364 43.7C315.097 41.5667 319.364 40.5 324.164 40.5C328.964 40.5 333.164 41.4 336.764 43.2C340.431 45 343.231 47.4333 345.164 50.5C347.164 53.5 348.164 56.8333 348.164 60.5C348.164 62.1667 347.997 63.6 347.664 64.8L347.164 66.5C344.297 67.1 341.197 67.6 337.864 68C330.864 69 323.797 69.5 316.664 69.5C316.664 77.2333 317.731 82.7667 319.864 86.1C321.997 89.3667 324.931 91 328.664 91C331.264 91 333.664 90.4 335.864 89.2C338.131 87.9333 339.897 86.3 341.164 84.3C342.497 82.2333 343.164 80.1333 343.164 78H345.664C345.664 80.6667 344.864 83.2 343.264 85.6C341.664 88 339.431 89.9333 336.564 91.4C333.697 92.8 330.397 93.5 326.664 93.5ZM316.664 67C320.931 67 324.397 66.8333 327.064 66.5C328.197 66.4333 329.397 66.2667 330.664 66C330.731 65.6667 330.897 64.9333 331.164 63.8C331.497 62.1333 331.664 60.3667 331.664 58.5C331.664 52.9667 330.931 48.9333 329.464 46.4C327.997 43.8 326.231 42.5 324.164 42.5C319.164 42.5 316.664 50.6667 316.664 67ZM5 190.5L11 189V125L5 123.5V122H32C42.1333 122 49.5667 123.633 54.3 126.9C59.1 130.1 61.5 134.3 61.5 139.5C61.5 143.1 60.4667 146 58.4 148.2C56.3333 150.4 53.7 152.033 50.5 153.1C47.1 154.3 43.4333 154.933 39.5 155V155.5C44.3667 155.7 48.6 156.433 52.2 157.7C55.8667 158.9 58.9 160.767 61.3 163.3C63.7667 165.833 65 169.067 65 173C65 178.933 62.5667 183.6 57.7 187C52.8333 190.333 44.9333 192 34 192H5V190.5ZM32 154C34.2 154 36.2333 153.4 38.1 152.2C40.0333 150.933 41.5667 149.2 42.7 147C43.9 144.733 44.5 142.233 44.5 139.5C44.5 136.567 43.9 133.967 42.7 131.7C41.5667 129.433 40.0333 127.667 38.1 126.4C36.2333 125.133 34.2 124.5 32 124.5H27.5V154H32ZM34 189.5C38.1333 189.5 41.5 188.033 44.1 185.1C46.7 182.167 48 178.133 48 173C48 167.867 46.7 163.833 44.1 160.9C41.5 157.967 38.1333 156.5 34 156.5H27.5V189.5H34ZM72.9688 190.5L78.9688 189V125L72.9688 123.5V122H85.9688C91.9688 122 94.9688 125 94.9688 131V189L100.969 190.5V192H72.9688V190.5ZM134.453 193.5C126.186 193.5 119.686 191.167 114.953 186.5C110.286 181.767 107.953 175.267 107.953 167C107.953 158.733 110.286 152.267 114.953 147.6C119.686 142.867 126.186 140.5 134.453 140.5C142.72 140.5 149.186 142.867 153.853 147.6C158.586 152.267 160.953 158.733 160.953 167C160.953 175.267 158.586 181.767 153.853 186.5C149.186 191.167 142.72 193.5 134.453 193.5ZM134.453 191.5C137.12 191.5 139.353 189.633 141.153 185.9C143.02 182.167 143.953 175.867 143.953 167C143.953 158.133 143.02 151.833 141.153 148.1C139.353 144.367 137.12 142.5 134.453 142.5C131.786 142.5 129.52 144.367 127.653 148.1C125.853 151.833 124.953 158.133 124.953 167C124.953 175.867 125.853 182.167 127.653 185.9C129.52 189.633 131.786 191.5 134.453 191.5ZM169.988 190.5L175.988 189V145L169.988 143.5V142H178.988C182.922 142 186.022 143.267 188.288 145.8C189.155 146.8 189.888 148.033 190.488 149.5C191.422 147.767 192.522 146.267 193.788 145C196.788 142 200.522 140.5 204.988 140.5C208.722 140.5 212.055 141.3 214.988 142.9C217.988 144.433 220.322 146.467 221.988 149C223.655 151.533 224.488 154.2 224.488 157V189L230.488 190.5V192H217.488C211.488 192 208.488 189 208.488 183V157C208.488 152.8 207.722 149.6 206.188 147.4C204.722 145.133 202.988 144 200.988 144C198.455 144 196.188 145.333 194.188 148C193.322 149.133 192.588 150.467 191.988 152V189L197.988 190.5V192H169.988V190.5ZM257.992 193.5C254.059 193.5 250.559 192.5 247.492 190.5C244.426 188.433 241.992 185.433 240.192 181.5C238.392 177.5 237.492 172.667 237.492 167C237.492 158.467 239.459 151.933 243.392 147.4C247.392 142.8 252.759 140.5 259.492 140.5C262.692 140.5 265.492 141.167 267.892 142.5C268.892 142.967 269.926 143.633 270.992 144.5V125L264.992 123.5V122H277.992C283.992 122 286.992 125 286.992 131V189L292.992 190.5V192H283.992C279.992 192 276.892 190.767 274.692 188.3C273.759 187.3 273.026 186.033 272.492 184.5C271.626 186.167 270.526 187.667 269.192 189C266.192 192 262.459 193.5 257.992 193.5ZM261.992 190C264.459 190 266.692 188.667 268.692 186C269.426 185 270.192 183.667 270.992 182V147.5C270.259 146.767 269.492 146.1 268.692 145.5C266.892 144.167 265.159 143.5 263.492 143.5C260.626 143.5 258.392 145.167 256.792 148.5C255.259 151.833 254.492 158 254.492 167C254.492 175.6 255.192 181.6 256.592 185C258.059 188.333 259.859 190 261.992 190ZM327.504 193.5C318.971 193.5 312.337 191.167 307.604 186.5C302.871 181.767 300.504 175.267 300.504 167C300.504 161.6 301.537 156.9 303.604 152.9C305.671 148.9 308.537 145.833 312.204 143.7C315.937 141.567 320.204 140.5 325.004 140.5C329.804 140.5 334.004 141.4 337.604 143.2C341.271 145 344.071 147.433 346.004 150.5C348.004 153.5 349.004 156.833 349.004 160.5C349.004 162.167 348.837 163.6 348.504 164.8L348.004 166.5C345.137 167.1 342.037 167.6 338.704 168C331.704 169 324.637 169.5 317.504 169.5C317.504 177.233 318.571 182.767 320.704 186.1C322.837 189.367 325.771 191 329.504 191C332.104 191 334.504 190.4 336.704 189.2C338.971 187.933 340.737 186.3 342.004 184.3C343.337 182.233 344.004 180.133 344.004 178H346.504C346.504 180.667 345.704 183.2 344.104 185.6C342.504 188 340.271 189.933 337.404 191.4C334.537 192.8 331.237 193.5 327.504 193.5ZM317.504 167C321.771 167 325.237 166.833 327.904 166.5C329.037 166.433 330.237 166.267 331.504 166C331.571 165.667 331.737 164.933 332.004 163.8C332.337 162.133 332.504 160.367 332.504 158.5C332.504 152.967 331.771 148.933 330.304 146.4C328.837 143.8 327.071 142.5 325.004 142.5C320.004 142.5 317.504 150.667 317.504 167Z" fill="#31505D"/>
<path d="M5 90.5L4.75746 89.5299L4 89.7192V90.5H5ZM11 89L11.2425 89.9701L12 89.7808V89H11ZM11 25H12V24.2192L11.2425 24.0299L11 25ZM5 23.5H4V24.2808L4.75746 24.4701L5 23.5ZM5 22V21H4V22H5ZM58.5 22H59.5V21H58.5V22ZM58.5 40V41H59.5V40H58.5ZM55.5 40L54.8804 40.7849L55.1528 41H55.5V40ZM52.2 36.2L51.3396 36.7098L51.3458 36.7199L52.2 36.2ZM49 24.5H50V23.5H49V24.5ZM27.5 24.5V23.5H26.5V24.5H27.5ZM27.5 56H26.5V57H27.5V56ZM39 56V57H39.8326L39.9835 56.1812L39 56ZM41.6 48.9L42.4666 49.399L42.4747 49.3849L42.4824 49.3706L41.6 48.9ZM43.5 46V45H43.014L42.7137 45.3822L43.5 46ZM46.5 46H47.5V45H46.5V46ZM46.5 68.5V69.5H47.5V68.5H46.5ZM43.5 68.5L42.7137 69.1178L43.014 69.5H43.5V68.5ZM41.6 65.6L42.4824 65.1294L42.4747 65.1151L42.4666 65.101L41.6 65.6ZM39 58.5L39.9835 58.3188L39.8326 57.5H39V58.5ZM27.5 58.5V57.5H26.5V58.5H27.5ZM27.5 89H26.5V89.7808L27.2575 89.9701L27.5 89ZM33.5 90.5H34.5V89.7192L33.7425 89.5299L33.5 90.5ZM33.5 92V93H34.5V92H33.5ZM5 92H4V93H5V92ZM5.24254 91.4701L11.2425 89.9701L10.7575 88.0299L4.75746 89.5299L5.24254 91.4701ZM12 89V25H10V89H12ZM11.2425 24.0299L5.24254 22.5299L4.75746 24.4701L10.7575 25.9701L11.2425 24.0299ZM6 23.5V22H4V23.5H6ZM5 23H58.5V21H5V23ZM57.5 22V40H59.5V22H57.5ZM58.5 39H55.5V41H58.5V39ZM56.1196 39.2151C54.9562 38.2966 53.9326 37.1232 53.0542 35.6801L51.3458 36.7199C52.334 38.3435 53.5105 39.7034 54.8804 40.7849L56.1196 39.2151ZM53.0603 35.6902C51.0188 32.2451 50 28.5213 50 24.5H48C48 28.8787 49.1146 32.9549 51.3397 36.7098L53.0603 35.6902ZM49 23.5H27.5V25.5H49V23.5ZM26.5 24.5V56H28.5V24.5H26.5ZM27.5 57H39V55H27.5V57ZM39.9835 56.1812C40.4298 53.758 41.2575 51.499 42.4666 49.399L40.7334 48.401C39.4091 50.701 38.5035 53.1754 38.0165 55.8188L39.9835 56.1812ZM42.4824 49.3706C42.9868 48.4248 43.5876 47.5072 44.2863 46.6178L42.7137 45.3822C41.9458 46.3595 41.2799 47.3752 40.7176 48.4294L42.4824 49.3706ZM43.5 47H46.5V45H43.5V47ZM45.5 46V68.5H47.5V46H45.5ZM46.5 67.5H43.5V69.5H46.5V67.5ZM44.2863 67.8822C43.5876 66.9928 42.9868 66.0752 42.4824 65.1294L40.7176 66.0706C41.2799 67.1248 41.9458 68.1405 42.7137 69.1178L44.2863 67.8822ZM42.4666 65.101C41.2575 63.001 40.4298 60.742 39.9835 58.3188L38.0165 58.6812C38.5035 61.3246 39.4091 63.799 40.7334 66.099L42.4666 65.101ZM39 57.5H27.5V59.5H39V57.5ZM26.5 58.5V89H28.5V58.5H26.5ZM27.2575 89.9701L33.2575 91.4701L33.7425 89.5299L27.7425 88.0299L27.2575 89.9701ZM32.5 90.5V92H34.5V90.5H32.5ZM33.5 91H5V93H33.5V91ZM6 92V90.5H4V92H6ZM77.9313 91.2L77.4524 92.0779L77.4642 92.0843L77.4761 92.0904L77.9313 91.2ZM71.0313 85L71.8667 84.4504L71.8667 84.4504L71.0313 85ZM68.5313 45H69.5313V44.2192L68.7738 44.0299L68.5313 45ZM62.5313 43.5H61.5313V44.2808L62.2887 44.4701L62.5313 43.5ZM62.5313 42V41H61.5313V42H62.5313ZM86.7313 86.7L85.8917 87.2433L85.901 87.2577L85.9109 87.2718L86.7313 86.7ZM98.7313 86L99.5313 86.6L99.5377 86.5914L98.7313 86ZM101.031 82L101.933 82.4327L102.031 82.2276V82H101.031ZM101.031 45H102.031V44.2192L101.274 44.0299L101.031 45ZM95.0313 43.5H94.0313V44.2808L94.7887 44.4701L95.0313 43.5ZM95.0313 42V41H94.0313V42H95.0313ZM123.031 42H124.031V41H123.031V42ZM123.031 43.5L123.274 44.4701L124.031 44.2808V43.5H123.031ZM117.031 45L116.789 44.0299L116.031 44.2192V45H117.031ZM117.031 92.5V93.5H118.031V92.5H117.031ZM104.931 88.5L104.204 89.1866L104.206 89.1887L104.931 88.5ZM102.531 84.5L103.484 84.1968L102.785 81.9999L101.659 84.0114L102.531 84.5ZM99.2313 89L99.9384 89.7071L99.9474 89.698L99.9563 89.6887L99.2313 89ZM88.0313 92.5C84.4388 92.5 81.2308 91.7634 78.3864 90.3096L77.4761 92.0904C80.6317 93.7033 84.157 94.5 88.0313 94.5V92.5ZM78.4101 90.3221C75.6058 88.7925 73.4343 86.8331 71.8667 84.4504L70.1958 85.5496C71.9616 88.2335 74.39 90.4075 77.4524 92.0779L78.4101 90.3221ZM71.8667 84.4504C70.2981 82.0661 69.5313 79.5884 69.5313 77H67.5313C67.5313 80.0116 68.4311 82.8672 70.1958 85.5496L71.8667 84.4504ZM69.5313 77V45H67.5313V77H69.5313ZM68.7738 44.0299L62.7738 42.5299L62.2887 44.4701L68.2887 45.9701L68.7738 44.0299ZM63.5313 43.5V42H61.5313V43.5H63.5313ZM62.5313 43H75.5313V41H62.5313V43ZM75.5313 43C78.3771 43 80.3278 43.7108 81.5741 44.9571C82.8205 46.2034 83.5313 48.1541 83.5313 51H85.5313C85.5313 47.8459 84.742 45.2966 82.9884 43.5429C81.2347 41.7892 78.6854 41 75.5313 41V43ZM83.5313 51V77H85.5313V51H83.5313ZM83.5313 77C83.5313 81.294 84.2772 84.7481 85.8917 87.2433L87.5708 86.1567C86.252 84.1186 85.5313 81.106 85.5313 77H83.5313ZM85.9109 87.2718C87.5613 89.6398 89.5985 91 92.0313 91V89C90.464 89 88.9679 88.1602 87.5517 86.1282L85.9109 87.2718ZM92.0313 91C94.9155 91 97.414 89.423 99.5313 86.6L97.9313 85.4C96.0485 87.9103 94.0804 89 92.0313 89V91ZM99.5377 86.5914C100.321 85.5237 101.118 84.1308 101.933 82.4327L100.13 81.5673C99.3448 83.2025 98.6086 84.4763 97.9248 85.4086L99.5377 86.5914ZM102.031 82V45H100.031V82H102.031ZM101.274 44.0299L95.2738 42.5299L94.7887 44.4701L100.789 45.9701L101.274 44.0299ZM96.0313 43.5V42H94.0313V43.5H96.0313ZM95.0313 43H123.031V41H95.0313V43ZM122.031 42V43.5H124.031V42H122.031ZM122.789 42.5299L116.789 44.0299L117.274 45.9701L123.274 44.4701L122.789 42.5299ZM116.031 45V92.5H118.031V45H116.031ZM117.031 91.5H116.031V93.5H117.031V91.5ZM116.031 91.5C111.346 91.5 107.945 90.2208 105.656 87.8113L104.206 89.1887C106.984 92.1125 110.983 93.5 116.031 93.5V91.5ZM105.658 87.8134C104.62 86.7145 103.902 85.5101 103.484 84.1968L101.578 84.8032C102.094 86.4232 102.975 87.8855 104.204 89.1866L105.658 87.8134ZM101.659 84.0114C100.764 85.6083 99.7134 87.0405 98.5063 88.3113L99.9563 89.6887C101.282 88.2928 102.431 86.725 103.404 84.9886L101.659 84.0114ZM98.5241 88.2929C95.7224 91.0946 92.2483 92.5 88.0313 92.5V94.5C92.7476 94.5 96.7401 92.9054 99.9384 89.7071L98.5241 88.2929ZM146.57 91.1L146.123 91.9945L146.13 91.9981L146.57 91.1ZM139.17 84.5L140.021 83.9736L140.021 83.9736L139.17 84.5ZM136.57 44.5H137.57V43.5H136.57V44.5ZM129.57 44.5H128.57V45.5H129.57V44.5ZM129.57 42V41H128.57V42H129.57ZM136.57 42V43H137.57V42H136.57ZM152.57 28H153.57V27H152.57V28ZM152.57 42H151.57V43H152.57V42ZM166.57 42H167.57V41H166.57V42ZM166.57 44.5V45.5H167.57V44.5H166.57ZM152.57 44.5V43.5H151.57V44.5H152.57ZM154.47 87.6L153.597 88.0878L153.597 88.0878L154.47 87.6ZM166.37 87.5L167.162 88.1108L167.162 88.1108L166.37 87.5ZM169.07 78V77H168.07V78H169.07ZM171.57 78H172.57V77H171.57V78ZM167.87 89.5L168.604 90.1791L168.613 90.17L167.87 89.5ZM158.07 92.5C153.791 92.5 150.114 91.7223 147.01 90.2019L146.13 91.9981C149.56 93.6777 153.549 94.5 158.07 94.5V92.5ZM147.018 90.2056C143.969 88.6811 141.648 86.6024 140.021 83.9736L138.32 85.0264C140.159 87.9976 142.772 90.3189 146.123 91.9944L147.018 90.2056ZM140.021 83.9736C138.392 81.3434 137.57 78.3615 137.57 75H135.57C135.57 78.7052 136.482 82.0566 138.32 85.0264L140.021 83.9736ZM137.57 75V44.5H135.57V75H137.57ZM136.57 43.5H129.57V45.5H136.57V43.5ZM130.57 44.5V42H128.57V44.5H130.57ZM129.57 43H136.57V41H129.57V43ZM137.57 42V37H135.57V42H137.57ZM137.57 37C137.57 34.1541 138.281 32.2034 139.527 30.9571C140.774 29.7108 142.724 29 145.57 29V27C142.416 27 139.867 27.7892 138.113 29.5429C136.36 31.2966 135.57 33.8459 135.57 37H137.57ZM145.57 29H152.57V27H145.57V29ZM151.57 28V42H153.57V28H151.57ZM152.57 43H166.57V41H152.57V43ZM165.57 42V44.5H167.57V42H165.57ZM166.57 43.5H152.57V45.5H166.57V43.5ZM151.57 44.5V75H153.57V44.5H151.57ZM151.57 75C151.57 78.0967 151.73 80.7334 152.056 82.8991C152.381 85.0522 152.88 86.8039 153.597 88.0878L155.343 87.1122C154.794 86.1295 154.343 84.6478 154.034 82.6009C153.727 80.5666 153.57 78.0366 153.57 75H151.57ZM153.597 88.0878C155.029 90.6502 157.218 92 160.07 92V90C157.989 90 156.445 89.0832 155.343 87.1122L153.597 88.0878ZM160.07 92C162.851 92 165.221 90.6275 167.162 88.1108L165.579 86.8892C163.92 89.0392 162.09 90 160.07 90V92ZM167.162 88.1108C169.138 85.5493 170.07 82.1428 170.07 78H168.07C168.07 81.8572 167.202 84.7841 165.579 86.8892L167.162 88.1108ZM169.07 79H171.57V77H169.07V79ZM170.57 78C170.57 82.7713 169.379 86.3353 167.128 88.83L168.613 90.17C171.295 87.198 172.57 83.0954 172.57 78H170.57ZM167.136 88.821C164.882 91.2574 161.895 92.5 158.07 92.5V94.5C162.379 94.5 165.925 93.0759 168.604 90.179L167.136 88.821ZM192.037 91.2L191.558 92.0779L191.57 92.0843L191.582 92.0904L192.037 91.2ZM185.137 85L185.972 84.4504L185.972 84.4504L185.137 85ZM182.637 45H183.637V44.2192L182.879 44.0299L182.637 45ZM176.637 43.5H175.637V44.2808L176.394 44.4701L176.637 43.5ZM176.637 42V41H175.637V42H176.637ZM200.837 86.7L199.997 87.2433L200.006 87.2577L200.016 87.2718L200.837 86.7ZM212.837 86L213.637 86.6L213.643 86.5914L212.837 86ZM215.137 82L216.038 82.4327L216.137 82.2276V82H215.137ZM215.137 45H216.137V44.2192L215.379 44.0299L215.137 45ZM209.137 43.5H208.137V44.2808L208.894 44.4701L209.137 43.5ZM209.137 42V41H208.137V42H209.137ZM237.137 42H238.137V41H237.137V42ZM237.137 43.5L237.379 44.4701L238.137 44.2808V43.5H237.137ZM231.137 45L230.894 44.0299L230.137 44.2192V45H231.137ZM231.137 92.5V93.5H232.137V92.5H231.137ZM219.037 88.5L218.31 89.1866L218.312 89.1887L219.037 88.5ZM216.637 84.5L217.59 84.1968L216.891 81.9999L215.764 84.0114L216.637 84.5ZM213.337 89L214.044 89.7071L214.053 89.698L214.062 89.6887L213.337 89ZM202.137 92.5C198.544 92.5 195.336 91.7634 192.492 90.3096L191.582 92.0904C194.737 93.7033 198.263 94.5 202.137 94.5V92.5ZM192.516 90.3221C189.711 88.7925 187.54 86.8331 185.972 84.4504L184.301 85.5496C186.067 88.2335 188.496 90.4075 191.558 92.0779L192.516 90.3221ZM185.972 84.4504C184.404 82.0661 183.637 79.5884 183.637 77H181.637C181.637 80.0116 182.537 82.8672 184.301 85.5496L185.972 84.4504ZM183.637 77V45H181.637V77H183.637ZM182.879 44.0299L176.879 42.5299L176.394 44.4701L182.394 45.9701L182.879 44.0299ZM177.637 43.5V42H175.637V43.5H177.637ZM176.637 43H189.637V41H176.637V43ZM189.637 43C192.483 43 194.433 43.7108 195.68 44.9571C196.926 46.2034 197.637 48.1541 197.637 51H199.637C199.637 47.8459 198.848 45.2966 197.094 43.5429C195.34 41.7892 192.791 41 189.637 41V43ZM197.637 51V77H199.637V51H197.637ZM197.637 77C197.637 81.294 198.383 84.7481 199.997 87.2433L201.676 86.1567C200.357 84.1186 199.637 81.106 199.637 77H197.637ZM200.016 87.2718C201.667 89.6398 203.704 91 206.137 91V89C204.569 89 203.073 88.1602 201.657 86.1282L200.016 87.2718ZM206.137 91C209.021 91 211.519 89.423 213.637 86.6L212.037 85.4C210.154 87.9103 208.186 89 206.137 89V91ZM213.643 86.5914C214.426 85.5237 215.223 84.1308 216.038 82.4327L214.235 81.5673C213.45 83.2025 212.714 84.4763 212.03 85.4086L213.643 86.5914ZM216.137 82V45H214.137V82H216.137ZM215.379 44.0299L209.379 42.5299L208.894 44.4701L214.894 45.9701L215.379 44.0299ZM210.137 43.5V42H208.137V43.5H210.137ZM209.137 43H237.137V41H209.137V43ZM236.137 42V43.5H238.137V42H236.137ZM236.894 42.5299L230.894 44.0299L231.379 45.9701L237.379 44.4701L236.894 42.5299ZM230.137 45V92.5H232.137V45H230.137ZM231.137 91.5H230.137V93.5H231.137V91.5ZM230.137 91.5C225.452 91.5 222.051 90.2208 219.762 87.8113L218.312 89.1887C221.089 92.1125 225.088 93.5 230.137 93.5V91.5ZM219.764 87.8134C218.726 86.7145 218.008 85.5101 217.59 84.1968L215.684 84.8032C216.199 86.4232 217.081 87.8855 218.31 89.1866L219.764 87.8134ZM215.764 84.0114C214.87 85.6083 213.819 87.0405 212.612 88.3113L214.062 89.6887C215.388 88.2928 216.537 86.725 217.509 84.9886L215.764 84.0114ZM212.63 88.2929C209.828 91.0946 206.354 92.5 202.137 92.5V94.5C206.853 94.5 210.846 92.9054 214.044 89.7071L212.63 88.2929ZM246.176 90.5L245.933 89.5299L245.176 89.7192V90.5H246.176ZM252.176 89L252.418 89.9701L253.176 89.7808V89H252.176ZM252.176 45H253.176V44.2192L252.418 44.0299L252.176 45ZM246.176 43.5H245.176V44.2808L245.933 44.4701L246.176 43.5ZM246.176 42V41H245.176V42H246.176ZM264.476 45.8L265.231 45.1451L265.226 45.1391L265.221 45.1332L264.476 45.8ZM266.676 49.5L265.75 49.8786L266.454 51.5999L267.502 50.0633L266.676 49.5ZM270.376 45.5L269.751 44.7191L269.743 44.726L270.376 45.5ZM289.476 44L288.783 44.7208L288.797 44.7344L288.811 44.7474L289.476 44ZM290.076 56.5L290.783 57.2071L290.783 57.2071L290.076 56.5ZM281.876 58.3L281.633 59.2701L281.683 59.2827L281.734 59.2899L281.876 58.3ZM280.676 58H279.676V58.7808L280.433 58.9701L280.676 58ZM280.676 44H281.676V43H280.676V44ZM271.376 48L270.686 47.2759L270.677 47.2843L270.669 47.2929L271.376 48ZM268.176 52L267.318 51.4855L267.176 51.723V52H268.176ZM268.176 89H267.176V89.7808L267.933 89.9701L268.176 89ZM274.176 90.5H275.176V89.7192L274.418 89.5299L274.176 90.5ZM274.176 92V93H275.176V92H274.176ZM246.176 92H245.176V93H246.176V92ZM246.418 91.4701L252.418 89.9701L251.933 88.0299L245.933 89.5299L246.418 91.4701ZM253.176 89V45H251.176V89H253.176ZM252.418 44.0299L246.418 42.5299L245.933 44.4701L251.933 45.9701L252.418 44.0299ZM247.176 43.5V42H245.176V43.5H247.176ZM246.176 43H255.176V41H246.176V43ZM255.176 43C258.874 43 261.684 44.1796 263.731 46.4668L265.221 45.1332C262.734 42.3537 259.344 41 255.176 41V43ZM263.72 46.4549C264.503 47.3583 265.184 48.4934 265.75 49.8786L267.601 49.1214C266.968 47.5733 266.182 46.2417 265.231 45.1451L263.72 46.4549ZM267.502 50.0633C268.445 48.6809 269.611 47.4174 271.009 46.274L269.743 44.726C268.207 45.9826 266.907 47.3858 265.85 48.9367L267.502 50.0633ZM271 46.2809C274.163 43.751 277.677 42.5 281.576 42.5V40.5C277.207 40.5 273.255 41.9156 269.751 44.7191L271 46.2809ZM281.576 42.5C284.971 42.5 287.307 43.3021 288.783 44.7208L290.169 43.2792C288.178 41.3645 285.247 40.5 281.576 40.5V42.5ZM288.811 44.7474C290.343 46.1084 291.176 48.1354 291.176 51H293.176C293.176 47.7312 292.209 45.0916 290.14 43.2526L288.811 44.7474ZM291.176 51C291.176 53.0432 290.554 54.608 289.369 55.7929L290.783 57.2071C292.398 55.592 293.176 53.4902 293.176 51H291.176ZM289.369 55.7929C288.26 56.9017 286.735 57.5 284.676 57.5V59.5C287.15 59.5 289.225 58.765 290.783 57.2071L289.369 55.7929ZM284.676 57.5C283.79 57.5 282.904 57.4368 282.017 57.31L281.734 59.2899C282.714 59.4299 283.695 59.5 284.676 59.5V57.5ZM282.118 57.3299L280.918 57.0299L280.433 58.9701L281.633 59.2701L282.118 57.3299ZM281.676 58V44H279.676V58H281.676ZM280.676 43C276.983 43 273.645 44.4584 270.686 47.2759L272.065 48.7241C274.707 46.2083 277.568 45 280.676 45V43ZM270.669 47.2929C269.289 48.6723 268.168 50.0691 267.318 51.4855L269.033 52.5145C269.783 51.2642 270.796 49.9944 272.083 48.7071L270.669 47.2929ZM267.176 52V89H269.176V52H267.176ZM267.933 89.9701L273.933 91.4701L274.418 89.5299L268.418 88.0299L267.933 89.9701ZM273.176 90.5V92H275.176V90.5H273.176ZM274.176 91H246.176V93H274.176V91ZM247.176 92V90.5H245.176V92H247.176ZM306.764 86.5L306.057 87.2071L306.062 87.2121L306.764 86.5ZM302.764 52.9L301.876 52.441L301.876 52.441L302.764 52.9ZM311.364 43.7L310.868 42.8317L310.861 42.8357L311.364 43.7ZM336.764 43.2L336.317 44.0944L336.323 44.0977L336.764 43.2ZM345.164 50.5L344.318 51.0333L344.325 51.0441L344.332 51.0547L345.164 50.5ZM347.664 64.8L348.623 65.0822L348.626 65.0749L348.628 65.0676L347.664 64.8ZM347.164 66.5L347.369 67.4788L347.955 67.3562L348.123 66.7822L347.164 66.5ZM337.864 68L337.745 67.0071L337.734 67.0085L337.723 67.01L337.864 68ZM316.664 69.5V68.5H315.664V69.5H316.664ZM319.864 86.1L319.022 86.6391L319.027 86.6468L319.864 86.1ZM335.864 89.2L336.343 90.0779L336.352 90.0729L335.864 89.2ZM341.164 84.3L340.324 83.7579L340.319 83.7649L341.164 84.3ZM343.164 78V77H342.164V78H343.164ZM345.664 78H346.664V77H345.664V78ZM343.264 85.6L342.432 85.0453L342.432 85.0453L343.264 85.6ZM336.564 91.4L337.003 92.2986L337.011 92.2945L337.02 92.2902L336.564 91.4ZM316.664 67H315.664V68H316.664V67ZM327.064 66.5L327.005 65.5017L326.973 65.5036L326.94 65.5077L327.064 66.5ZM330.664 66L330.87 66.9785L331.515 66.8427L331.645 66.1961L330.664 66ZM331.164 63.8L332.137 64.029L332.141 64.0126L332.145 63.9961L331.164 63.8ZM329.464 46.4L328.593 46.8913L328.599 46.901L329.464 46.4ZM326.664 92.5C318.316 92.5 311.963 90.2218 307.466 85.7879L306.062 87.2121C311.031 92.1115 317.946 94.5 326.664 94.5V92.5ZM307.471 85.7929C302.967 81.2892 300.664 75.0675 300.664 67H298.664C298.664 75.4658 301.094 82.2442 306.057 87.2071L307.471 85.7929ZM300.664 67C300.664 61.7281 301.672 57.1915 303.652 53.359L301.876 52.441C299.722 56.6085 298.664 61.4719 298.664 67H300.664ZM303.652 53.359C305.637 49.5172 308.375 46.596 311.867 44.5643L310.861 42.8357C307.02 45.0706 304.024 48.2828 301.876 52.441L303.652 53.359ZM311.86 44.5682C315.425 42.531 319.517 41.5 324.164 41.5V39.5C319.211 39.5 314.769 40.6024 310.868 42.8318L311.86 44.5682ZM324.164 41.5C328.838 41.5 332.88 42.376 336.317 44.0944L337.211 42.3056C333.448 40.424 329.09 39.5 324.164 39.5V41.5ZM336.323 44.0977C339.845 45.8267 342.496 48.1425 344.318 51.0333L346.01 49.9667C343.966 46.7242 341.016 44.1733 337.205 42.3023L336.323 44.0977ZM344.332 51.0547C346.221 53.8875 347.164 57.0272 347.164 60.5H349.164C349.164 56.6395 348.108 53.1125 345.996 49.9453L344.332 51.0547ZM347.164 60.5C347.164 62.1047 347.003 63.4432 346.701 64.5324L348.628 65.0676C348.992 63.7568 349.164 62.2287 349.164 60.5H347.164ZM346.705 64.5178L346.205 66.2178L348.123 66.7822L348.623 65.0822L346.705 64.5178ZM346.959 65.5212C344.125 66.1145 341.054 66.6101 337.745 67.0071L337.983 68.9929C341.341 68.5899 344.47 68.0855 347.369 67.4788L346.959 65.5212ZM337.723 67.01C330.77 68.0033 323.75 68.5 316.664 68.5V70.5C323.844 70.5 330.958 69.9967 338.005 68.9899L337.723 67.01ZM315.664 69.5C315.664 77.2726 316.726 83.0524 319.022 86.6391L320.706 85.5609C318.735 82.4809 317.664 77.194 317.664 69.5H315.664ZM319.027 86.6468C321.335 90.1809 324.575 92 328.664 92V90C325.286 90 322.66 88.5524 320.701 85.5532L319.027 86.6468ZM328.664 92C331.425 92 333.99 91.3611 336.343 90.0779L335.385 88.3221C333.338 89.4389 331.103 90 328.664 90V92ZM336.352 90.0729C338.749 88.7331 340.645 86.9889 342.009 84.8351L340.319 83.7649C339.15 85.6111 337.512 87.1335 335.376 88.3271L336.352 90.0729ZM342.004 84.8421C343.426 82.6392 344.164 80.3537 344.164 78H342.164C342.164 79.913 341.569 81.8275 340.324 83.7579L342.004 84.8421ZM343.164 79H345.664V77H343.164V79ZM344.664 78C344.664 80.453 343.932 82.7955 342.432 85.0453L344.096 86.1547C345.796 83.6045 346.664 80.8803 346.664 78H344.664ZM342.432 85.0453C340.937 87.2871 338.841 89.1117 336.109 90.5098L337.02 92.2902C340.02 90.755 342.391 88.7129 344.096 86.1547L342.432 85.0453ZM336.125 90.5014C333.417 91.8242 330.271 92.5 326.664 92.5V94.5C330.524 94.5 333.978 93.7758 337.003 92.2986L336.125 90.5014ZM316.664 68C320.951 68 324.464 67.8328 327.188 67.4923L326.94 65.5077C324.331 65.8338 320.91 66 316.664 66V68ZM327.123 67.4983C328.312 67.4283 329.561 67.254 330.87 66.9785L330.458 65.0214C329.233 65.2793 328.083 65.4383 327.005 65.5017L327.123 67.4983ZM331.645 66.1961C331.707 65.8826 331.87 65.1667 332.137 64.029L330.191 63.571C329.925 64.7 329.754 65.4508 329.683 65.8039L331.645 66.1961ZM332.145 63.9961C332.492 62.2589 332.664 60.4262 332.664 58.5H330.664C330.664 60.3072 330.503 62.0077 330.183 63.6039L332.145 63.9961ZM332.664 58.5C332.664 52.9221 331.933 48.6679 330.329 45.899L328.599 46.901C329.929 49.1987 330.664 53.0113 330.664 58.5H332.664ZM330.335 45.9087C328.778 43.1493 326.74 41.5 324.164 41.5V43.5C325.722 43.5 327.216 44.4507 328.593 46.8913L330.335 45.9087ZM324.164 41.5C320.95 41.5 318.857 44.1688 317.583 48.3323C316.288 52.5614 315.664 58.8071 315.664 67H317.664C317.664 58.8595 318.29 52.8553 319.495 48.9177C320.721 44.9145 322.378 43.5 324.164 43.5V41.5ZM5 190.5L4.75746 189.53L4 189.719V190.5H5ZM11 189L11.2425 189.97L12 189.781V189H11ZM11 125H12V124.219L11.2425 124.03L11 125ZM5 123.5H4V124.281L4.75746 124.47L5 123.5ZM5 122V121H4V122H5ZM54.3 126.9L53.732 127.723L53.7386 127.728L53.7453 127.732L54.3 126.9ZM58.4 148.2L59.1289 148.885L59.1289 148.885L58.4 148.2ZM50.5 153.1L50.1838 152.151L50.1755 152.154L50.1672 152.157L50.5 153.1ZM39.5 155L39.4831 154L38.5 154.017V155H39.5ZM39.5 155.5H38.5V156.46L39.4589 156.499L39.5 155.5ZM52.2 157.7L51.8681 158.643L51.8785 158.647L51.889 158.65L52.2 157.7ZM61.3 163.3L60.574 163.988L60.5835 163.998L61.3 163.3ZM57.7 187L58.2651 187.825L58.2727 187.82L57.7 187ZM5 192H4V193H5V192ZM38.1 152.2L38.6408 153.041L38.648 153.036L38.1 152.2ZM42.7 147L41.8162 146.532L41.811 146.542L42.7 147ZM42.7 131.7L41.8056 132.147L41.8108 132.158L41.8162 132.168L42.7 131.7ZM38.1 126.4L37.5385 127.227L37.5452 127.232L37.552 127.236L38.1 126.4ZM27.5 124.5V123.5H26.5V124.5H27.5ZM27.5 154H26.5V155H27.5V154ZM44.1 185.1L43.3517 184.437L43.3517 184.437L44.1 185.1ZM44.1 160.9L43.3517 161.563L44.1 160.9ZM27.5 156.5V155.5H26.5V156.5H27.5ZM27.5 189.5H26.5V190.5H27.5V189.5ZM5.24254 191.47L11.2425 189.97L10.7575 188.03L4.75746 189.53L5.24254 191.47ZM12 189V125H10V189H12ZM11.2425 124.03L5.24254 122.53L4.75746 124.47L10.7575 125.97L11.2425 124.03ZM6 123.5V122H4V123.5H6ZM5 123H32V121H5V123ZM32 123C42.0665 123 49.2505 124.63 53.732 127.723L54.868 126.077C49.8828 122.636 42.2002 121 32 121V123ZM53.7453 127.732C58.3029 130.77 60.5 134.675 60.5 139.5H62.5C62.5 133.925 59.8971 129.43 54.8547 126.068L53.7453 127.732ZM60.5 139.5C60.5 142.898 59.531 145.536 57.6712 147.515L59.1289 148.885C61.4024 146.464 62.5 143.302 62.5 139.5H60.5ZM57.6712 147.515C55.7308 149.581 53.2453 151.131 50.1838 152.151L50.8162 154.049C54.1547 152.936 56.9358 151.219 59.1289 148.885L57.6712 147.515ZM50.1672 152.157C46.8775 153.318 43.3185 153.935 39.4831 154L39.5169 156C43.5482 155.932 47.3225 155.282 50.8328 154.043L50.1672 152.157ZM38.5 155V155.5H40.5V155H38.5ZM39.4589 156.499C44.2524 156.696 48.3834 157.417 51.8681 158.643L52.5319 156.757C48.8166 155.449 44.4809 154.704 39.5411 154.501L39.4589 156.499ZM51.889 158.65C55.4147 159.804 58.3001 161.587 60.5741 163.988L62.026 162.612C59.4999 159.946 56.3187 157.996 52.511 156.75L51.889 158.65ZM60.5835 163.998C62.8473 166.323 64 169.295 64 173H66C66 168.838 64.6861 165.344 62.0165 162.602L60.5835 163.998ZM64 173C64 178.606 61.7264 182.967 57.1273 186.18L58.2727 187.82C63.407 184.233 66 179.26 66 173H64ZM57.1349 186.175C52.525 189.332 44.8796 191 34 191V193C44.9871 193 53.1417 191.334 58.2651 187.825L57.1349 186.175ZM34 191H5V193H34V191ZM6 192V190.5H4V192H6ZM32 155C34.3935 155 36.6143 154.344 38.6408 153.041L37.5592 151.359C35.8524 152.456 34.0065 153 32 153V155ZM38.648 153.036C40.736 151.668 42.3824 149.8 43.589 147.458L41.811 146.542C40.751 148.6 39.3307 150.198 37.552 151.364L38.648 153.036ZM43.5838 147.468C44.8651 145.048 45.5 142.385 45.5 139.5H43.5C43.5 142.081 42.9349 144.419 41.8162 146.532L43.5838 147.468ZM45.5 139.5C45.5 136.427 44.8704 133.662 43.5838 131.232L41.8162 132.168C42.9296 134.271 43.5 136.706 43.5 139.5H45.5ZM43.5944 131.253C42.3899 128.844 40.7432 126.936 38.648 125.564L37.552 127.236C39.3235 128.397 40.7434 130.023 41.8056 132.147L43.5944 131.253ZM38.6615 125.573C36.6336 124.196 34.4056 123.5 32 123.5V125.5C33.9944 125.5 35.833 126.07 37.5385 127.227L38.6615 125.573ZM32 123.5H27.5V125.5H32V123.5ZM26.5 124.5V154H28.5V124.5H26.5ZM27.5 155H32V153H27.5V155ZM34 190.5C38.4018 190.5 42.0471 188.924 44.8483 185.763L43.3517 184.437C40.9529 187.143 37.8649 188.5 34 188.5V190.5ZM44.8483 185.763C47.6553 182.596 49 178.3 49 173H47C47 177.966 45.7447 181.737 43.3517 184.437L44.8483 185.763ZM49 173C49 167.7 47.6553 163.404 44.8483 160.237L43.3517 161.563C45.7447 164.263 47 168.034 47 173H49ZM44.8483 160.237C42.0471 157.076 38.4018 155.5 34 155.5V157.5C37.8649 157.5 40.9529 158.857 43.3517 161.563L44.8483 160.237ZM34 155.5H27.5V157.5H34V155.5ZM26.5 156.5V189.5H28.5V156.5H26.5ZM27.5 190.5H34V188.5H27.5V190.5ZM72.9688 190.5L72.7262 189.53L71.9688 189.719V190.5H72.9688ZM78.9688 189L79.2113 189.97L79.9688 189.781V189H78.9688ZM78.9688 125H79.9688V124.219L79.2113 124.03L78.9688 125ZM72.9688 123.5H71.9688V124.281L72.7262 124.47L72.9688 123.5ZM72.9688 122V121H71.9688V122H72.9688ZM94.9688 189H93.9688V189.781L94.7262 189.97L94.9688 189ZM100.969 190.5H101.969V189.719L101.211 189.53L100.969 190.5ZM100.969 192V193H101.969V192H100.969ZM72.9688 192H71.9688V193H72.9688V192ZM73.2113 191.47L79.2113 189.97L78.7262 188.03L72.7262 189.53L73.2113 191.47ZM79.9688 189V125H77.9688V189H79.9688ZM79.2113 124.03L73.2113 122.53L72.7262 124.47L78.7262 125.97L79.2113 124.03ZM73.9688 123.5V122H71.9688V123.5H73.9688ZM72.9688 123H85.9688V121H72.9688V123ZM85.9688 123C88.8146 123 90.7653 123.711 92.0116 124.957C93.258 126.203 93.9688 128.154 93.9688 131H95.9688C95.9688 127.846 95.1795 125.297 93.4259 123.543C91.6722 121.789 89.1229 121 85.9688 121V123ZM93.9688 131V189H95.9688V131H93.9688ZM94.7262 189.97L100.726 191.47L101.211 189.53L95.2113 188.03L94.7262 189.97ZM99.9688 190.5V192H101.969V190.5H99.9688ZM100.969 191H72.9688V193H100.969V191ZM73.9688 192V190.5H71.9688V192H73.9688ZM114.953 186.5L114.241 187.202L114.246 187.207L114.251 187.212L114.953 186.5ZM114.953 147.6L114.246 146.893L114.246 146.893L114.953 147.6ZM153.853 147.6L153.141 148.302L153.146 148.307L153.151 148.312L153.853 147.6ZM153.853 186.5L153.146 185.793L153.146 185.793L153.853 186.5ZM141.153 185.9L140.259 185.453L140.255 185.459L140.252 185.466L141.153 185.9ZM141.153 148.1L140.252 148.534L140.255 148.541L140.259 148.547L141.153 148.1ZM127.653 148.1L126.759 147.653L126.755 147.659L126.752 147.666L127.653 148.1ZM127.653 185.9L126.752 186.334L126.755 186.341L126.759 186.347L127.653 185.9ZM134.453 192.5C126.382 192.5 120.158 190.228 115.655 185.788L114.251 187.212C119.215 192.106 125.991 194.5 134.453 194.5V192.5ZM115.665 185.798C111.226 181.295 108.953 175.072 108.953 167H106.953C106.953 175.462 109.347 182.238 114.241 187.202L115.665 185.798ZM108.953 167C108.953 158.928 111.226 152.742 115.66 148.307L114.246 146.893C109.347 151.792 106.953 158.539 106.953 167H108.953ZM115.66 148.307C120.164 143.803 126.386 141.5 134.453 141.5V139.5C125.987 139.5 119.209 141.93 114.246 146.893L115.66 148.307ZM134.453 141.5C142.521 141.5 148.706 143.804 153.141 148.302L154.565 146.898C149.667 141.93 142.918 139.5 134.453 139.5V141.5ZM153.151 148.312C157.65 152.747 159.953 158.932 159.953 167H161.953C161.953 158.535 159.523 151.786 154.555 146.888L153.151 148.312ZM159.953 167C159.953 175.068 157.65 181.289 153.146 185.793L154.56 187.207C159.523 182.244 161.953 175.466 161.953 167H159.953ZM153.146 185.793C148.712 190.227 142.525 192.5 134.453 192.5V194.5C142.914 194.5 149.661 192.106 154.56 187.207L153.146 185.793ZM134.453 192.5C137.693 192.5 140.189 190.201 142.054 186.334L140.252 185.466C138.517 189.065 136.546 190.5 134.453 190.5V192.5ZM142.048 186.347C144.026 182.39 144.953 175.885 144.953 167H142.953C142.953 175.848 142.013 181.943 140.259 185.453L142.048 186.347ZM144.953 167C144.953 158.115 144.026 151.61 142.048 147.653L140.259 148.547C142.013 152.057 142.953 158.152 142.953 167H144.953ZM142.054 147.666C140.189 143.799 137.693 141.5 134.453 141.5V143.5C136.546 143.5 138.517 144.935 140.252 148.534L142.054 147.666ZM134.453 141.5C131.219 141.5 128.69 143.791 126.759 147.653L128.548 148.547C130.35 144.943 132.354 143.5 134.453 143.5V141.5ZM126.752 147.666C124.847 151.618 123.953 158.116 123.953 167H125.953C125.953 158.15 126.859 152.049 128.554 148.534L126.752 147.666ZM123.953 167C123.953 175.884 124.847 182.382 126.752 186.334L128.554 185.466C126.859 181.951 125.953 175.85 125.953 167H123.953ZM126.759 186.347C128.69 190.209 131.219 192.5 134.453 192.5V190.5C132.354 190.5 130.35 189.057 128.548 185.453L126.759 186.347ZM169.988 190.5L169.746 189.53L168.988 189.719V190.5H169.988ZM175.988 189L176.231 189.97L176.988 189.781V189H175.988ZM175.988 145H176.988V144.219L176.231 144.03L175.988 145ZM169.988 143.5H168.988V144.281L169.746 144.47L169.988 143.5ZM169.988 142V141H168.988V142H169.988ZM188.288 145.8L189.044 145.145L189.039 145.139L189.034 145.133L188.288 145.8ZM190.488 149.5L189.563 149.879L190.365 151.839L191.369 149.974L190.488 149.5ZM193.788 145L194.495 145.707L194.495 145.707L193.788 145ZM214.988 142.9L214.509 143.778L214.521 143.784L214.533 143.79L214.988 142.9ZM221.988 149L221.153 149.55L221.153 149.55L221.988 149ZM224.488 189H223.488V189.781L224.246 189.97L224.488 189ZM230.488 190.5H231.488V189.719L230.731 189.53L230.488 190.5ZM230.488 192V193H231.488V192H230.488ZM206.188 147.4L205.349 147.943L205.358 147.958L205.368 147.972L206.188 147.4ZM194.188 148L194.983 148.607L194.988 148.6L194.188 148ZM191.988 152L191.057 151.636L190.988 151.811V152H191.988ZM191.988 189H190.988V189.781L191.746 189.97L191.988 189ZM197.988 190.5H198.988V189.719L198.231 189.53L197.988 190.5ZM197.988 192V193H198.988V192H197.988ZM169.988 192H168.988V193H169.988V192ZM170.231 191.47L176.231 189.97L175.746 188.03L169.746 189.53L170.231 191.47ZM176.988 189V145H174.988V189H176.988ZM176.231 144.03L170.231 142.53L169.746 144.47L175.746 145.97L176.231 144.03ZM170.988 143.5V142H168.988V143.5H170.988ZM169.988 143H178.988V141H169.988V143ZM178.988 143C182.686 143 185.497 144.18 187.543 146.467L189.034 145.133C186.547 142.354 183.157 141 178.988 141V143ZM187.533 146.455C188.316 147.358 188.996 148.493 189.563 149.879L191.414 149.121C190.781 147.573 189.994 146.242 189.044 145.145L187.533 146.455ZM191.369 149.974C192.26 148.318 193.304 146.899 194.495 145.707L193.081 144.293C191.739 145.635 190.583 147.215 189.608 149.026L191.369 149.974ZM194.495 145.707C197.297 142.905 200.771 141.5 204.988 141.5V139.5C200.272 139.5 196.279 141.095 193.081 144.293L194.495 145.707ZM204.988 141.5C208.574 141.5 211.74 142.267 214.509 143.778L215.467 142.022C212.37 140.333 208.869 139.5 204.988 139.5V141.5ZM214.533 143.79C217.397 145.254 219.592 147.176 221.153 149.55L222.824 148.45C221.052 145.757 218.58 143.613 215.443 142.01L214.533 143.79ZM221.153 149.55C222.721 151.934 223.488 154.412 223.488 157H225.488C225.488 153.988 224.588 151.133 222.824 148.45L221.153 149.55ZM223.488 157V189H225.488V157H223.488ZM224.246 189.97L230.246 191.47L230.731 189.53L224.731 188.03L224.246 189.97ZM229.488 190.5V192H231.488V190.5H229.488ZM230.488 191H217.488V193H230.488V191ZM217.488 191C214.642 191 212.692 190.289 211.445 189.043C210.199 187.797 209.488 185.846 209.488 183H207.488C207.488 186.154 208.277 188.703 210.031 190.457C211.785 192.211 214.334 193 217.488 193V191ZM209.488 183V157H207.488V183H209.488ZM209.488 157C209.488 152.703 208.708 149.266 207.009 146.828L205.368 147.972C206.735 149.934 207.488 152.897 207.488 157H209.488ZM207.028 146.857C205.448 144.416 203.441 143 200.988 143V145C202.536 145 203.995 145.851 205.349 147.943L207.028 146.857ZM200.988 143C198.046 143 195.512 144.568 193.388 147.4L194.988 148.6C196.864 146.098 198.864 145 200.988 145V143ZM193.394 147.393C192.463 148.61 191.686 150.028 191.057 151.636L192.92 152.364C193.491 150.905 194.181 149.656 194.983 148.607L193.394 147.393ZM190.988 152V189H192.988V152H190.988ZM191.746 189.97L197.746 191.47L198.231 189.53L192.231 188.03L191.746 189.97ZM196.988 190.5V192H198.988V190.5H196.988ZM197.988 191H169.988V193H197.988V191ZM170.988 192V190.5H168.988V192H170.988ZM247.492 190.5L246.933 191.329L246.94 191.333L246.946 191.338L247.492 190.5ZM240.192 181.5L239.28 181.91L239.283 181.916L240.192 181.5ZM243.392 147.4L242.638 146.744L242.637 146.745L243.392 147.4ZM267.892 142.5L267.407 143.374L267.437 143.391L267.469 143.406L267.892 142.5ZM270.992 144.5L270.362 145.276L271.992 146.601V144.5H270.992ZM270.992 125H271.992V124.219L271.235 124.03L270.992 125ZM264.992 123.5H263.992V124.281L264.75 124.47L264.992 123.5ZM264.992 122V121H263.992V122H264.992ZM286.992 189H285.992V189.781L286.75 189.97L286.992 189ZM292.992 190.5H293.992V189.719L293.235 189.53L292.992 190.5ZM292.992 192V193H293.992V192H292.992ZM274.692 188.3L275.438 187.634L275.431 187.626L275.423 187.618L274.692 188.3ZM272.492 184.5L273.437 184.171L272.675 181.981L271.605 184.039L272.492 184.5ZM269.192 189L269.899 189.707L269.899 189.707L269.192 189ZM268.692 186L269.492 186.6L269.499 186.591L268.692 186ZM270.992 182L271.894 182.433L271.992 182.228V182H270.992ZM270.992 147.5H271.992V147.086L271.699 146.793L270.992 147.5ZM268.692 145.5L269.292 144.7L269.287 144.696L268.692 145.5ZM256.792 148.5L255.891 148.067L255.887 148.075L255.884 148.082L256.792 148.5ZM256.592 185L255.668 185.381L255.672 185.392L255.677 185.403L256.592 185ZM257.992 192.5C254.238 192.5 250.93 191.548 248.038 189.662L246.946 191.338C250.187 193.452 253.88 194.5 257.992 194.5V192.5ZM248.051 189.671C245.161 187.723 242.838 184.879 241.101 181.084L239.283 181.916C241.146 185.988 243.69 189.143 246.933 191.329L248.051 189.671ZM241.104 181.09C239.376 177.25 238.492 172.565 238.492 167H236.492C236.492 172.769 237.408 177.75 239.28 181.91L241.104 181.09ZM238.492 167C238.492 158.607 240.427 152.343 244.148 148.055L242.637 146.745C238.49 151.524 236.492 158.326 236.492 167H238.492ZM244.147 148.056C247.936 143.699 253.014 141.5 259.492 141.5V139.5C252.503 139.5 246.849 141.901 242.638 146.744L244.147 148.056ZM259.492 141.5C262.551 141.5 265.178 142.136 267.407 143.374L268.378 141.626C265.806 140.197 262.834 139.5 259.492 139.5V141.5ZM267.469 143.406C268.379 143.831 269.344 144.449 270.362 145.276L271.623 143.724C270.507 142.818 269.405 142.102 268.315 141.594L267.469 143.406ZM271.992 144.5V125H269.992V144.5H271.992ZM271.235 124.03L265.235 122.53L264.75 124.47L270.75 125.97L271.235 124.03ZM265.992 123.5V122H263.992V123.5H265.992ZM264.992 123H277.992V121H264.992V123ZM277.992 123C280.838 123 282.789 123.711 284.035 124.957C285.281 126.203 285.992 128.154 285.992 131H287.992C287.992 127.846 287.203 125.297 285.449 123.543C283.696 121.789 281.146 121 277.992 121V123ZM285.992 131V189H287.992V131H285.992ZM286.75 189.97L292.75 191.47L293.235 189.53L287.235 188.03L286.75 189.97ZM291.992 190.5V192H293.992V190.5H291.992ZM292.992 191H283.992V193H292.992V191ZM283.992 191C280.212 191 277.409 189.844 275.438 187.634L273.946 188.966C276.375 191.689 279.772 193 283.992 193V191ZM275.423 187.618C274.601 186.737 273.933 185.598 273.437 184.171L271.548 184.829C272.118 186.469 272.917 187.863 273.961 188.982L275.423 187.618ZM271.605 184.039C270.786 185.614 269.746 187.032 268.485 188.293L269.899 189.707C271.305 188.302 272.465 186.719 273.379 184.961L271.605 184.039ZM268.485 188.293C265.683 191.095 262.209 192.5 257.992 192.5V194.5C262.708 194.5 266.701 192.905 269.899 189.707L268.485 188.293ZM261.992 191C264.876 191 267.375 189.423 269.492 186.6L267.892 185.4C266.009 187.91 264.041 189 261.992 189V191ZM269.499 186.591C270.282 185.524 271.079 184.131 271.894 182.433L270.091 181.567C269.306 183.202 268.57 184.476 267.886 185.409L269.499 186.591ZM271.992 182V147.5H269.992V182H271.992ZM271.699 146.793C270.934 146.027 270.131 145.329 269.292 144.7L268.092 146.3C268.853 146.871 269.584 147.506 270.285 148.207L271.699 146.793ZM269.287 144.696C267.374 143.279 265.436 142.5 263.492 142.5V144.5C264.882 144.5 266.411 145.054 268.097 146.304L269.287 144.696ZM263.492 142.5C260.124 142.5 257.6 144.507 255.891 148.067L257.694 148.933C259.185 145.826 261.127 144.5 263.492 144.5V142.5ZM255.884 148.082C254.249 151.636 253.492 158.007 253.492 167H255.492C255.492 157.993 256.269 152.03 257.701 148.918L255.884 148.082ZM253.492 167C253.492 175.602 254.185 181.78 255.668 185.381L257.517 184.619C256.199 181.42 255.492 175.598 255.492 167H253.492ZM255.677 185.403C257.182 188.822 259.23 191 261.992 191V189C260.488 189 258.936 187.844 257.508 184.597L255.677 185.403ZM307.604 186.5L306.897 187.207L306.902 187.212L307.604 186.5ZM303.604 152.9L302.715 152.441L302.715 152.441L303.604 152.9ZM312.204 143.7L311.708 142.832L311.701 142.836L312.204 143.7ZM337.604 143.2L337.157 144.094L337.163 144.098L337.604 143.2ZM346.004 150.5L345.158 151.033L345.165 151.044L345.172 151.055L346.004 150.5ZM348.504 164.8L349.463 165.082L349.465 165.075L349.467 165.068L348.504 164.8ZM348.004 166.5L348.209 167.479L348.794 167.356L348.963 166.782L348.004 166.5ZM338.704 168L338.585 167.007L338.574 167.008L338.562 167.01L338.704 168ZM317.504 169.5V168.5H316.504V169.5H317.504ZM320.704 186.1L319.862 186.639L319.867 186.647L320.704 186.1ZM336.704 189.2L337.183 190.078L337.192 190.073L336.704 189.2ZM342.004 184.3L341.164 183.758L341.159 183.765L342.004 184.3ZM344.004 178V177H343.004V178H344.004ZM346.504 178H347.504V177H346.504V178ZM344.104 185.6L343.272 185.045L343.272 185.045L344.104 185.6ZM337.404 191.4L337.843 192.299L337.851 192.294L337.859 192.29L337.404 191.4ZM317.504 167H316.504V168H317.504V167ZM327.904 166.5L327.845 165.502L327.812 165.504L327.78 165.508L327.904 166.5ZM331.504 166L331.71 166.979L332.355 166.843L332.484 166.196L331.504 166ZM332.004 163.8L332.977 164.029L332.981 164.013L332.984 163.996L332.004 163.8ZM330.304 146.4L329.433 146.891L329.438 146.901L330.304 146.4ZM327.504 192.5C319.155 192.5 312.803 190.222 308.306 185.788L306.902 187.212C311.871 192.112 318.786 194.5 327.504 194.5V192.5ZM308.311 185.793C303.807 181.289 301.504 175.068 301.504 167H299.504C299.504 175.466 301.934 182.244 306.897 187.207L308.311 185.793ZM301.504 167C301.504 161.728 302.512 157.191 304.492 153.359L302.715 152.441C300.562 156.609 299.504 161.472 299.504 167H301.504ZM304.492 153.359C306.477 149.517 309.215 146.596 312.707 144.564L311.701 142.836C307.86 145.071 304.864 148.283 302.715 152.441L304.492 153.359ZM312.7 144.568C316.265 142.531 320.357 141.5 325.004 141.5V139.5C320.051 139.5 315.609 140.602 311.708 142.832L312.7 144.568ZM325.004 141.5C329.678 141.5 333.72 142.376 337.157 144.094L338.051 142.306C334.288 140.424 329.93 139.5 325.004 139.5V141.5ZM337.163 144.098C340.685 145.827 343.335 148.142 345.158 151.033L346.85 149.967C344.806 146.724 341.856 144.173 338.045 142.302L337.163 144.098ZM345.172 151.055C347.06 153.887 348.004 157.027 348.004 160.5H350.004C350.004 156.639 348.947 153.113 346.836 149.945L345.172 151.055ZM348.004 160.5C348.004 162.105 347.843 163.443 347.54 164.532L349.467 165.068C349.832 163.757 350.004 162.229 350.004 160.5H348.004ZM347.545 164.518L347.045 166.218L348.963 166.782L349.463 165.082L347.545 164.518ZM347.799 165.521C344.964 166.114 341.893 166.61 338.585 167.007L338.823 168.993C342.181 168.59 345.31 168.086 348.209 167.479L347.799 165.521ZM338.562 167.01C331.61 168.003 324.59 168.5 317.504 168.5V170.5C324.684 170.5 331.798 169.997 338.845 168.99L338.562 167.01ZM316.504 169.5C316.504 177.273 317.566 183.052 319.862 186.639L321.546 185.561C319.575 182.481 318.504 177.194 318.504 169.5H316.504ZM319.867 186.647C322.175 190.181 325.415 192 329.504 192V190C326.126 190 323.5 188.552 321.541 185.553L319.867 186.647ZM329.504 192C332.265 192 334.83 191.361 337.183 190.078L336.225 188.322C334.178 189.439 331.943 190 329.504 190V192ZM337.192 190.073C339.589 188.733 341.485 186.989 342.849 184.835L341.159 183.765C339.99 185.611 338.352 187.134 336.216 188.327L337.192 190.073ZM342.844 184.842C344.265 182.639 345.004 180.354 345.004 178H343.004C343.004 179.913 342.409 181.828 341.164 183.758L342.844 184.842ZM344.004 179H346.504V177H344.004V179ZM345.504 178C345.504 180.453 344.772 182.796 343.272 185.045L344.936 186.155C346.636 183.604 347.504 180.88 347.504 178H345.504ZM343.272 185.045C341.777 187.287 339.681 189.112 336.948 190.51L337.859 192.29C340.86 190.755 343.231 188.713 344.936 186.155L343.272 185.045ZM336.965 190.501C334.256 191.824 331.111 192.5 327.504 192.5V194.5C331.364 194.5 334.818 193.776 337.843 192.299L336.965 190.501ZM317.504 168C321.791 168 325.304 167.833 328.028 167.492L327.78 165.508C325.171 165.834 321.75 166 317.504 166V168ZM327.963 167.498C329.152 167.428 330.401 167.254 331.71 166.979L331.298 165.021C330.073 165.279 328.923 165.438 327.845 165.502L327.963 167.498ZM332.484 166.196C332.547 165.883 332.71 165.167 332.977 164.029L331.03 163.571C330.765 164.7 330.594 165.451 330.523 165.804L332.484 166.196ZM332.984 163.996C333.332 162.259 333.504 160.426 333.504 158.5H331.504C331.504 160.307 331.343 162.008 331.023 163.604L332.984 163.996ZM333.504 158.5C333.504 152.922 332.772 148.668 331.169 145.899L329.438 146.901C330.769 149.199 331.504 153.011 331.504 158.5H333.504ZM331.175 145.909C329.618 143.149 327.58 141.5 325.004 141.5V143.5C326.561 143.5 328.056 144.451 329.433 146.891L331.175 145.909ZM325.004 141.5C321.79 141.5 319.697 144.169 318.423 148.332C317.128 152.561 316.504 158.807 316.504 167H318.504C318.504 158.86 319.13 152.855 320.335 148.918C321.561 144.915 323.218 143.5 325.004 143.5V141.5Z" fill="black" mask="url(#path-1-outside-1_212_687)"/>
</svg>
